<svg xmlns="http://www.w3.org/2000/svg" xmlns:xlink="http://www.w3.org/1999/xlink" viewBox="0 0 692 715"><defs><clipPath id="clip-path" transform="translate(-5 -6)"><polygon points="385.89 481.22 378.37 488.81 366.1 487.03 349.26 492.84 349.26 403.8 356.19 403.8 363.12 413.48 366.09 427.03 376.99 458 385.89 481.22" style="fill:none"/></clipPath><clipPath id="clip-path-2" transform="translate(-5 -6)"><rect x="214.56" y="289.6" width="392.21" height="278.73" style="fill:#fff"/></clipPath></defs><title>cartoon-4</title><g id="Capa_1" data-name="Capa 1"><path d="M590.13,165.75c-16-7.69-32.31-14.86-46.92-24.41-13.62-8.91-30.28-17.86-20.76-35.71,7.41-13.9,23.74-17.17,18.18-37.67C532,35.93,391.69-10.52,270.22,11.9,154.82,33.21,46.44,142,11.39,265,1.68,299,1.19,341,23.07,370.74c14.22,19.33,52.35,38.83,38.69,69.75-4.44,10.06-12.22,17.7-19.42,25.56a82.92,82.92,0,0,0-22.27,55.38c-1.35,53.92,32.06,99.83,70.83,128.12,85.33,62.28,173.54,84.7,293.56,63.88C547.2,685.2,692.17,554.8,696.91,362.28,699,276.93,662.39,200.44,590.13,165.75Z" transform="translate(-5 -6)" style="fill:#c6f7e2"/><path d="M590.13,165.75c-16-7.69-32.31-14.86-46.92-24.41-13.62-8.91-30.28-17.86-20.76-35.71,7.41-13.9,23.74-17.17,18.18-37.67C532,35.93,391.69-10.52,270.22,11.9,154.82,33.21,46.44,142,11.39,265,1.68,299,1.19,341,23.07,370.74c14.22,19.33,52.35,38.83,38.69,69.75-4.44,10.06-12.22,17.7-19.42,25.56a82.92,82.92,0,0,0-22.27,55.38c-1.35,53.92,32.06,99.83,70.83,128.12,85.33,62.28,173.54,84.7,293.56,63.88C547.2,685.2,692.17,554.8,696.91,362.28,699,276.93,662.39,200.44,590.13,165.75Z" transform="translate(-5 -6)" style="fill:#c6f7e2;opacity:0.5"/></g><g id="Capa_4" data-name="Capa 4"><path d="M180.92,359.51a1.68,1.68,0,0,1,1.19,2.32c-1.66,3.43-1.35,7.83-1,11.49a43,43,0,0,0,2.25,10.6,19.1,19.1,0,0,1,7.4-.29,1.32,1.32,0,0,1,.92.53,1.67,1.67,0,0,1,.88.58c1.38,1.74,1.95,4.16,2.42,6.26a45.09,45.09,0,0,1,1.11,8.5,14,14,0,0,1-.73,5.9c-1.37,3.31-3.44,6.36-4.49,9.79-2.22,7.26,1.21,14.66,4.86,20.92,3.14,5.4,6.73,11.55,11.22,16.77a1.32,1.32,0,0,1,1.14,1.1,1.57,1.57,0,0,0,0,.23,35.41,35.41,0,0,0,10,7.85,1.66,1.66,0,0,1,1.19.56c.47.21,1,.41,1.44.59-3.9-4.57-5.89-10.34-6.68-16.14-1.05-7.66.23-15.27,1.27-22.86a91,91,0,0,0,1.07-12.77,46.37,46.37,0,0,0-1.73-12c-2.09-7.6-5.45-14.89-6.8-22.67-1.38-8,.09-15.58,2.85-23.14,2.84-7.76,6.14-15.28,8-23.34a95,95,0,0,0,2.38-25.2c-.28-7-2.26-14.52-.07-21.39a15,15,0,0,1,6-8c3.05-2.05,6.73-3.12,10.28-4.06,8.28-2.19,16.58-4.33,24.87-6.49,0,0,0,0,0-.07a1.7,1.7,0,0,1,2.21-.55l.18.07a1.4,1.4,0,0,1,1,.37c4.9,1.7,10.39,1,15.3-.35A33.06,33.06,0,0,1,288.5,252c1.4-1.48,3.69.72,2.29,2.2a29.57,29.57,0,0,0-8.08,23.47A30,30,0,0,0,292,295.82a33.44,33.44,0,0,1,3.3-17.78A30.88,30.88,0,0,1,311,263.86a1.6,1.6,0,0,1,1.85-.9,122.59,122.59,0,0,0,22.92,2.68,71.55,71.55,0,0,0,22.62-2.75l.29-.06a1.84,1.84,0,0,1,2.8,0,55.09,55.09,0,0,1,6.06,9.83c5,10.45,7.7,22.81,5.67,34.34,4.37-5,8.22-10.44,10.5-16.55a29.37,29.37,0,0,0-.94-23.42,1.51,1.51,0,0,1,.08-1.52,1.67,1.67,0,0,1,1.47-1.23c9.46-1.07,19-2.15,28.52-1.63,13.94.75,28.64,5.22,37.37,16.26A35.28,35.28,0,0,1,457.45,304,54.73,54.73,0,0,0,462,293a45.16,45.16,0,0,0,.79-21.3,1.68,1.68,0,0,1,2.88-1.41,1.87,1.87,0,0,1,.4,0c3.06.6,5.73,2.54,7.94,4.58a30,30,0,0,1,6.06,7.74c1.79,3.37,2.12,6.86,2.18,10.59s.12,7.77,3,10.54a1.37,1.37,0,0,1,.32,1.66,1.41,1.41,0,0,1,0,.73,82.06,82.06,0,0,0-2.48,12.21c-1.81,14.58-.45,30.87,8.29,43.37a1.53,1.53,0,0,1,.27.73,1.35,1.35,0,0,1,.09,1.11,83.36,83.36,0,0,0-3.91,26.26c.1,8.14,1.65,16.17,2.49,24.26a87,87,0,0,1-.35,23.9c-1.72,9.79-5.49,20-13.44,26.41,11.17-2.47,20.79-11,23.23-21.9.44-2,3.56-1.13,3.13.82a27.19,27.19,0,0,1-1.07,3.57,20.64,20.64,0,0,0,5.76,6.59,14.94,14.94,0,0,0,4.77,2.74,20.61,20.61,0,0,1-3.16-12.16c.2-5.72,2.26-11.13,4.06-16.52A45,45,0,0,0,516,411.83a39.66,39.66,0,0,0-12.11-27.17c-1.47-1.42.83-3.62,2.3-2.19,1,.94,1.88,1.92,2.75,2.94a1.28,1.28,0,0,1,.23-.14,12.87,12.87,0,0,1,5.67-1.13,1.48,1.48,0,0,1,.16-.94c2.79-5.51,3.8-11.9,4.11-18a49.55,49.55,0,0,0-1.79-17.3,1.59,1.59,0,0,1-.45-2.47c4.32-4.75,6-11.25,6.63-17.39a64.11,64.11,0,0,0-1.24-19.53,1.48,1.48,0,0,1,.63-1.58,1.33,1.33,0,0,1,1.38-.72,1.58,1.58,0,0,0,1.35-.42,6.76,6.76,0,0,0,1.52-1.72,26.75,26.75,0,0,0,3-6.43A77.69,77.69,0,0,0,533,286.35a21.4,21.4,0,0,1-12.36,6.49c-1.46.21-2.88-1.44-1.57-2.6,2.82-2.51,5-6.74,4-10.52-1-3.51-3.9-6.61-6.76-8.87a1.22,1.22,0,0,1-.53-1.18,1.47,1.47,0,0,1-.05-.53,41.3,41.3,0,0,0-.13-9,27.92,27.92,0,0,0-6.2-14.63c-4.26-4.94-10.24-7.82-16.69-9.24a1.36,1.36,0,0,1-1.14-1.14,1.4,1.4,0,0,1-.26-.94c.76-11.06-7.86-20.06-15.25-27.55-1-1,0-3.19,1.58-2.59a112.31,112.31,0,0,1,34.23,20.25Q510.53,222.6,509,221a77.82,77.82,0,0,0-26.41-18.26c-9.38-4.05-19.31-6.67-29.16-9.41A1.46,1.46,0,0,1,452.3,192a33,33,0,0,0-6.5-8c-9.59-8.72-23.57-13.23-36.72-12.93a1.69,1.69,0,0,1-1.6.09c-9-4-18-8.1-27.47-11.08a79.47,79.47,0,0,0-25.14-4,157.83,157.83,0,0,0-21.82,1.85,123.35,123.35,0,0,0-20,4.56c-3.44,1.14-7.95,2.68-10.65,5.21a1.54,1.54,0,0,1-1.17,1.26,1.83,1.83,0,0,1-2.14.2A75,75,0,0,0,276.32,175a80.54,80.54,0,0,0-20.56,12.3,1.65,1.65,0,0,1-1.5,2.11,43.18,43.18,0,0,0-12.49,2.89,55.26,55.26,0,0,0-30.83,31.2,1.58,1.58,0,0,1-1.11,1,1.92,1.92,0,0,1-.35.18c-13.18,5-21.94,19.14-22.2,32.55a41.39,41.39,0,0,1,3.75-3.36c1.6-1.26,3.91.92,2.29,2.2a43,43,0,0,0-10.89,12.84c-11.61,20.8-5.89,45-.49,66.65l.08.09c1.5,1.4-.8,3.59-2.29,2.19-5.77-5.4-9.56-12.59-12.89-19.62a24.69,24.69,0,0,0-2.68,8.73c-.72,6.55,1.05,13.05,3.88,19,2.46,5.16,6.15,10.87,12,12.91A1.58,1.58,0,0,1,180.92,359.51Z" transform="translate(-5 -6)" style="fill:#fff"/><path d="M309,172.56a27.66,27.66,0,0,1,2.56-3.06c6.25-6.45,15-9.81,23.58-11.35.9-.16,1.79-.29,2.69-.4a1.36,1.36,0,0,1,1.15-.88,99.51,99.51,0,0,1,23.76-1,175.05,175.05,0,0,1,21.57,3.43c6.05,1.27,12.3,2.32,18.2,4.25a24.65,24.65,0,0,1,6.75,3.31c4.09-1.54,8.88-1.64,13.14-1.55a47.14,47.14,0,0,1,7.21.66,34.14,34.14,0,0,1,7.07,2.29c5.31,2.14,10.68,4.3,16.49,3.8a26.25,26.25,0,0,0,13.68-5.73c9-7.06,12.83-18.44,13-29.79s-2.18-23.68-8.28-33.14c-4.91-7.62-13.53-13.26-22.44-12.58a37.77,37.77,0,0,0-4.34.84c-2.17.55-3-2.77-.92-3.45a22.08,22.08,0,0,1,5.7-1,42.08,42.08,0,0,1,11.8.37,40.86,40.86,0,0,1,25.71,15.71,43.17,43.17,0,0,1,8,19,49.22,49.22,0,0,0,.95-10.77,47.2,47.2,0,0,0-13.24-31.93,47.7,47.7,0,0,0-29-14.15c-1.78-.18-2.52-3.16-.46-3.5l.46-.06h0c11.07-1.72,22,.45,32.49,3.82-.52-.29-1-.6-1.55-.87A64.37,64.37,0,0,0,448,57.69c-2,.21-4.53,1.34-5.73-.79a4.11,4.11,0,0,1-.4-3.07,1.92,1.92,0,0,1,.13-1.09,22.9,22.9,0,0,0,1.19-15.13c-2.71-9.48-12.94-14.11-21.72-15.2-11-1.38-21.85,2.14-31.94,6.29-1.52.63-2.56-1.38-2-2.62A49.28,49.28,0,0,1,405.61,6a51.92,51.92,0,0,0-37.5,21.34,1.78,1.78,0,0,1-1.13.74c-4.05,2.88-9.91,3.4-14.66,2.91-5.39-.55-9.89-3.55-14.79-5.67a22.57,22.57,0,0,0-13.19-1.61,36.7,36.7,0,0,0-12.82,4.8c-3.43,2.09-6.65,4.86-8.35,8.66-.9,2-3.67.41-3.07-1.55-3.82-2.85-9.15-2.43-13.42-.87-9.86,3.6-18.7,13.34-30.05,10.15-8.18-2.31-12.37-9.89-14.82-17.73-1.78,6-3.05,12.36-1.49,18.43,1.49,5.81,5.82,11.6,11.93,12.39a1.81,1.81,0,0,1,.87,3.32,47.71,47.71,0,0,0-11.56,10.46c-3.08,3.8-6.1,8.51-6.68,13.55a2,2,0,0,1-.21.71A1.38,1.38,0,0,1,233,87.32a19.83,19.83,0,0,0-16.46,5.73c-9.63,9.63-3.6,24.55-8.11,36.23A28.63,28.63,0,0,1,197,143.16a21.63,21.63,0,0,0,6.48-3.72,1.84,1.84,0,0,1,3,1.74,2.26,2.26,0,0,1,0,.51,44.76,44.76,0,0,0,1.4,25.75,22,22,0,0,0,5.88,8.83,37.51,37.51,0,0,0,11.7,6.78A53.08,53.08,0,0,0,253.45,185a84.7,84.7,0,0,0,14.67-4.22c4.67-1.78,9.09-4.11,13.68-6.07,8.38-3.59,18.31-5.71,27.05-2.18A.6.6,0,0,1,309,172.56Z" transform="translate(-5 -6)" style="fill:#fff"/><path d="M406.1,164.74a1.7,1.7,0,0,1-.9-.76,28.51,28.51,0,0,0-10.52-5c-7.63-2.14-15.41-3.81-23.14-5.47A158.74,158.74,0,0,0,345.35,150a58.86,58.86,0,0,1,16.41,8c2.28,1.6.17,5.61-2.12,4a55.14,55.14,0,0,0-24-9.52,56.68,56.68,0,0,0-33,5.59,38.77,38.77,0,0,0-12.47,9.78A32.91,32.91,0,0,0,284,180.21a63.05,63.05,0,0,1,11.73-5.28,150.11,150.11,0,0,1,27.59-6.81,169,169,0,0,1,29.43-2.41c21.7.37,41.83,10.37,61.25,20.29-.51-7.25-2-14.93-6.8-20.17C406.85,165.44,406.48,165.09,406.1,164.74Z" transform="translate(-5 -6)" style="fill:#fff"/><path d="M547.92,617.65c-8.62-8-20.28-11.86-31.62-15a527.33,527.33,0,0,0-79.79-15.52,29.61,29.61,0,0,1-5.87,5.07c-1.6,12.51-9.37,23.31-19.73,30.94-23.32,17.18-54.34,15.7-81.89,11.21-13.44-2.19-28.36-4.8-39.08-13.44-8.77-7.06-15.5-19-13.71-30.15a31.72,31.72,0,0,1-6.09-3.76l-.14,0a470.63,470.63,0,0,0-48.84,8.6c-14.11,3.16-28.31,6.51-42.09,10.8a77.66,77.66,0,0,0-18.69,8.14,45.7,45.7,0,0,0-13.63,13.5A60.56,60.56,0,0,0,139,645.4a72.58,72.58,0,0,0-2,13.82c-.64,8.45-.67,37.8-1,53.78l9-1c9.75-1.07,37.34-13.38,54.64-9.82,14.61,3,34.31,6.61,49.18,7.83l36.47,3a254.9,254.9,0,0,0,28.17-1.57l63-10.5a97,97,0,0,0,10.1-2.29c43.14-12,107.75-3.07,117.49-1.64l63,16c-.6-15.51-1-56.49-3.57-67.17C561,635.44,556,625.18,547.92,617.65Z" transform="translate(-5 -6)" style="fill:#fff"/><path d="M503.12,380.86a52.41,52.41,0,0,1,6.34,10.54,48.83,48.83,0,0,1,4.31,18.14,52.33,52.33,0,0,1-3.17,19c-3.79,11.13-10.7,26.32,0,36.22a1.85,1.85,0,0,1-.92,3.16c-4.53,1.29-9.28-1.17-12.77-3.62a33.07,33.07,0,0,1-7.59-7.15c-.26.46-.54.92-.82,1.37a5.69,5.69,0,0,1,4.95,5.43c.11,3.09-1.93,6.17-3,9a84.06,84.06,0,0,0-3.05,9.63,80.35,80.35,0,0,0-1.9,10.39,101.4,101.4,0,0,0,22-20.82c12-15.45,19.3-33.95,20.39-52.87.54-9.42,0-19.68-3.45-28.66-1.66-4.32-4.34-7.84-9.19-9.38C511.61,380.14,506.7,379.29,503.12,380.86Z" transform="translate(-5 -6)" style="fill:#fff"/><path d="M445.74,589.38a1.29,1.29,0,0,1,1.19-1.46,35,35,0,0,0,14.89-6.17c3.88-2.82,7.49-6.88,7.79-11.71a1.76,1.76,0,0,1,2.7-1.26c3.3-.53,7.16-1.88,9.53-4a14.62,14.62,0,0,0,3.13-5,61.48,61.48,0,0,0,2.28-6.57,128.42,128.42,0,0,0,3.33-13.67,126.24,126.24,0,0,0,2-28.25,1.51,1.51,0,0,1,1.84-1.51,12.48,12.48,0,0,0,1.69-3.65,18,18,0,0,0,.91-5.18c0-1.93-.46-3.88-.63-5.8-.2-2.3-.3-4.61-.28-6.91a75.48,75.48,0,0,1,1.39-13.73,72.84,72.84,0,0,1,3.93-13.34c.55-1.38,2.53-4.48,1-5.8-1.18-1-3.17,1.08-3.68,2a1.46,1.46,0,0,1-1.2.77,35.75,35.75,0,0,1-8.22,6.24c-1.75,15.85-8.19,31.76-19.29,43.79a1.71,1.71,0,0,1-2.6-.32L466,505.37a32.24,32.24,0,0,1-8.51,21c-1,1.14-2.69.11-2.83-1.11a24.81,24.81,0,0,0-.89-4.21A27.89,27.89,0,0,1,449,535a1.59,1.59,0,0,1-1.27.71A1.73,1.73,0,0,1,445,535c-2.14-6.58-4.86-13.07-9.05-18.74a35,35,0,0,0-16.73-12.37c-13.55-4.7-28.18-2.53-42-.53a166.67,166.67,0,0,1-23,2.14A235.43,235.43,0,0,1,330.47,504c-15.16-1.48-30.9-3.1-45.8,1-11.43,3.1-22.65,10.21-27.22,21.06-.48,1.14-2.32,1.72-3,.37l-1-1.88a30.22,30.22,0,0,1-.25,5,1.68,1.68,0,0,1-3.26.42A78.44,78.44,0,0,0,239,511.41a12.48,12.48,0,0,1-.27,2.08c-.28,1.26-1.89,1.4-2.77.69a52.49,52.49,0,0,1-8.62-8.82,70.85,70.85,0,0,1-14.64-40.28,37.31,37.31,0,0,1-7.61-5.21c.38,2.56.69,5.13.9,7.7a131.72,131.72,0,0,1-.29,24.8,107,107,0,0,1-1.89,11.78c-.44,2-1.13,4.12-.67,6.16.35,1.54,1.85,3.21,3.66,2.76a1.65,1.65,0,0,1,1.07.08,1.38,1.38,0,0,1,1.23,1.48,57.42,57.42,0,0,0,1.55,16.31c4.63,19.25,18.35,37.83,37.83,45.64l.17.08a1.72,1.72,0,0,1,1.46,1c3.46,8.12,7.13,16.68,13.06,23.48s15,11.78,24.41,10.26a1.77,1.77,0,0,1,2.06,2,18.57,18.57,0,0,0,7.27,4.57c2.91,1,6.41,1.58,9.33.27a1.75,1.75,0,0,1,2.27.57,1.31,1.31,0,0,1,.19.51,91.45,91.45,0,0,0,19.44,9.89,78.13,78.13,0,0,0,19.64,4.55,67.78,67.78,0,0,0,19.89-1.27,75.7,75.7,0,0,0,34-16.56,1.33,1.33,0,0,1,1.57-1.49,95.66,95.66,0,0,0,12.2.7,42.15,42.15,0,0,0,10.9-1.38,21.94,21.94,0,0,0,8.81-5,32.65,32.65,0,0,0,10.57-19.26ZM419.08,535.7a62,62,0,0,1-12.8,9.45c-19.41,11.28-42.94,14.21-65.26,12.41a240.33,240.33,0,0,1-37.53-6.43c-10.39-2.53-23-4.85-29.3-14-2.79-4-3.84-9.16-1.88-13.73,1.84-4.25,5.72-7.48,10.07-9.34,5.35-2.29,11.3-2.66,17.09-2.65,6.43,0,12.86.17,19.28.27l75.57,1.11a1.73,1.73,0,0,1,.78-.13c2.79.18,5.57.36,8.36.52,1.9.11,3.79.22,5.69.27a35.23,35.23,0,0,1,4.93.19,13,13,0,0,1,9.75,8.77C425.39,527.4,422.64,532.14,419.08,535.7Z" transform="translate(-5 -6)" style="fill:#fff"/><path d="M214.64,463.14c-6-6.56-10.92-14.16-15.41-21.65-4.67-7.77-8.68-16.67-6.58-25.7,1-4.17,3.37-7.87,5.3-11.7a14.35,14.35,0,0,0,1.48-7.55,45.58,45.58,0,0,0-1.24-9.14,16.89,16.89,0,0,0-2.32-6.18h-.11c-10.23-1.56-19.65,5.58-23.7,13.68-4.56,9.13-3.17,20-1.31,29.52,2,10.08,4.41,20.16,8.33,29.77,6.79,16.63,19.31,32.43,38,38.81A132.52,132.52,0,0,0,214.64,463.14Z" transform="translate(-5 -6)" style="fill:#fff"/></g><g id="Capa_2" data-name="Capa 2"><path d="M228.81,340.54c-2.16,7.39-5.54,14.39-7.53,21.83a36.66,36.66,0,0,0-1.36,11.16,45,45,0,0,0,1.77,10c.21-.62.44-1.23.71-1.84,1.47-3.34,3.81-6.78,7.35-8.27,4.68-2,9.87-2.19,14.89-2.51q16.83-1.06,33.7-.73c10.9.22,21.71,1.12,32.57,2,8.47.66,18.21.8,24.57,7.2a17.17,17.17,0,0,1,3.07,4.53,13.16,13.16,0,0,0,2.44,4c1.28,1.21,3.14,1.51,4.83,1.8a29.09,29.09,0,0,0,5.67.41,14.89,14.89,0,0,0,5.45-1,7.77,7.77,0,0,0,3.62-3.61c1.81-3.25,2.81-6.94,6.25-9,3.27-1.94,7.26-2.52,11-2.75a122.52,122.52,0,0,1,12.42.11c4.94.18,9.89.06,14.84,0l17.1-.09c11.15-.06,22.31-.26,33.46-.18,4.79,0,10,.43,14.07,3.17a14.23,14.23,0,0,1,4.13,4.23A86.53,86.53,0,0,1,477,365.33a46.77,46.77,0,0,1-5.29-11c-4.79-14.28-4.2-30.47-.3-44.87a14.34,14.34,0,0,1-3-8.56c-.27-3.65.23-7.46-1.26-10.92a24.67,24.67,0,0,0-4.95-7.2,15.31,15.31,0,0,0-5.6-4,48.34,48.34,0,0,1-1.07,19.15,65.17,65.17,0,0,1-9.59,20c-.88,1.29-3.36.49-2.71-1.12a31.94,31.94,0,0,0,1.68-18.21,31.41,31.41,0,0,0-7.1-14.64,36.07,36.07,0,0,0-15.11-9.78c-12.93-4.56-26.84-3.2-40.22-1.64a33.28,33.28,0,0,1,2.4,9.58c1.22,13.67-7.29,25.85-16.31,35.44a1.5,1.5,0,0,1-2.49-1.41A38.49,38.49,0,0,0,367.86,306a57,57,0,0,0-10.1-34.89,1.87,1.87,0,0,1-.35.16A66.12,66.12,0,0,1,335.69,274a111.54,111.54,0,0,1-20.76-2.44,1.71,1.71,0,0,1-.27.14,26.29,26.29,0,0,0-13.76,12.82,31.59,31.59,0,0,0-2.25,19,1.49,1.49,0,0,1-2.48,1.41,32.52,32.52,0,0,1-7.78-8.56,31.62,31.62,0,0,1-4.16-22.95,25,25,0,0,1-14.45-.24l-5.55,1.51L252,278c-3.54,1-7.16,1.79-10.61,3.05-3.05,1.1-6,2.78-7.65,5.59s-2,6-2,9.09c0,3.33.5,6.63.75,9.94a97.3,97.3,0,0,1,.15,11.83A98.88,98.88,0,0,1,228.81,340.54Zm150.76,2.56c11.74-3.42,23.58-6.86,35.79-7.86s25,.61,35.52,6.71,18.48,17.19,18.57,29.16c-7.41-11.78-21.07-18.9-35.06-21s-28.3.36-41.85,4.33c-3.68,1.08-7.74,2.25-11.24.71s-1.83-8-2.42-11.78ZM243.29,342c10.55-6.1,23.31-7.71,35.52-6.71s24.05,4.44,35.79,7.86l.69.28c-.59,3.8,1.09,10.24-2.42,11.78s-7.56.37-11.24-.71c-13.55-4-27.87-6.42-41.85-4.33s-27.65,9.21-35.06,21C224.81,359.14,232.75,348,243.29,342Z" transform="translate(-5 -6)" style="fill:#fff"/><path d="M453.54,494.08l3.69,6.4c8.4-10.24,13.45-23.37,15.09-36.36a30.72,30.72,0,0,1-12.54,2.71c-1.41,0-2.1-2.05-.75-2.71,5.94-2.9,10-7.95,12.64-13.82,5.71-12.92,5.06-27.34,3.42-41l-.54-4.42a176.15,176.15,0,0,1-1.6,20.39c-1.16,7.94-3,16.14-6.48,23.43a28.31,28.31,0,0,1-16,14.68c-7.51,2.79-15.85,3.09-23.8,3.07A157.18,157.18,0,0,1,399,464c-7.86-1.42-16.18-3.21-22.44-8.39-11.08-9.16-10.85-24.94-14.79-37.48-1.82-5.82-6-13.4-13.25-13-3.51.19-6.62,2.46-8.73,5.07-2.46,3.05-3.58,6.83-4.26,10.59-.74,4.1-.95,8.27-1.64,12.37A49.34,49.34,0,0,1,331,443.62c-2.84,6.92-7.53,12.91-14.36,16.45-7,3.63-15,4.68-22.71,5.6a138.11,138.11,0,0,1-18.42.67c-6.73-.09-13.48-.39-20.18-1-6.51-.63-12.94-1.77-18.19-5.86-4.21-3.28-6.2-7.81-7.3-12.84a120,120,0,0,1-2.07-18.53c-.09-1.56-.17-3.13-.26-4.71-.21,1.67-.43,3.34-.65,5-1.55,11.71-2.61,27.33,8.53,35.2a1.46,1.46,0,0,1-1.14,2.65,24.43,24.43,0,0,1-5.76-1.51,61,61,0,0,0,1.11,8.51c2.39,11.81,7.73,23.88,16.62,32.46a9.29,9.29,0,0,0-1.29-3.73c-.86-1.4,1.21-3,2.33-1.76a80.3,80.3,0,0,1,11.88,17.6,28,28,0,0,0-2.18-8.63c-.73-1.68,1.71-3.18,2.57-1.47q2.43,4.86,4.87,9.7c5.5-10.39,16.46-17.09,28-19.77,14.29-3.33,29-1.33,43.43.08a143.87,143.87,0,0,0,22.92.83c7.38-.46,14.65-1.83,22-2.84,12.7-1.73,26.67-2.35,38.12,4.33,9.86,5.76,15.22,16.06,18.7,26.42,3-5.57,4.14-13.06,1.56-18.79a1.48,1.48,0,0,1,2.57-1.46,28.92,28.92,0,0,1,4.92,10.69,28.13,28.13,0,0,0,4.31-21.67A1.49,1.49,0,0,1,453.54,494.08Zm-72.19-4.52a12.6,12.6,0,0,1-9.27,2c-1.82-.33-3.3-1.33-5-1.95s-3.41,0-5,1-2.85,2.11-4.44,2.93a16.32,16.32,0,0,1-5.23,1.71,17.31,17.31,0,0,1-10.77-1.78c-3.07-1.65-5.64-4.55-9.07-5.49-3.62-1-6.24,2.35-9.7,2.68s-6.64-2.31-7.95-5.36c-1.7-3.95-.42-8.36.8-12.26.56-1.78,3.43-1,2.87.78-1.17,3.72-2.74,8.43-.05,11.89a4.78,4.78,0,0,0,4.14,2.06c1.71-.19,3.18-1.36,4.71-2a9.41,9.41,0,0,1,8.74.62c2.83,1.56,5.18,4,8.21,5.19a14.5,14.5,0,0,0,9.51.42c3.2-.95,5.38-3.41,8.34-4.76a7.63,7.63,0,0,1,4.48-.7c1.72.29,3.13,1.32,4.74,1.88a9.35,9.35,0,0,0,7.86-1c5-3,5.15-10.46.51-13.91-1.51-1.11,0-3.63,1.5-2.5C387.5,475.59,387.83,485.05,381.35,489.56Z" transform="translate(-5 -6)" style="fill:#fff"/><path d="M400,423.86c8.05,4,17.06,6.23,26,4a47.43,47.43,0,0,0,25.14-16.51,18.26,18.26,0,0,0-7.57-10.13,35.33,35.33,0,0,0-13.66-4.88,1.35,1.35,0,0,1-.83-.46,80.8,80.8,0,0,0-18.64-.91,97.56,97.56,0,0,0-10.63,1.16,1.28,1.28,0,0,1-.7,1.38,4.89,4.89,0,0,0-1.27,1c-.6.53-1.17,1.11-1.72,1.69a48.62,48.62,0,0,0-3.73,4.52,43.17,43.17,0,0,0-3.35,5.25,17.76,17.76,0,0,0-1.08,2.35,10.74,10.74,0,0,0-.34,1.1,4.64,4.64,0,0,0-.11.51.31.31,0,0,1,0,.1s0,0,0,.2a1.63,1.63,0,0,1-.11.46A44.24,44.24,0,0,0,400,423.86Zm16.85-27.12c6.84,0,13.37,5.41,13.37,12.09s-6.53,12.1-13.37,12.1a12.1,12.1,0,1,1,0-24.19Z" transform="translate(-5 -6)" style="fill:#fff"/><path d="M307.52,163.19a22.67,22.67,0,0,1,2.22-2.59c5.4-5.39,13-8.23,20.5-9.53.76-.13,1.53-.24,2.29-.33a1.18,1.18,0,0,1,1-.74,89,89,0,0,1,20.82-.82,158.47,158.47,0,0,1,19,3c5.17,1.06,10.54,1.91,15.57,3.55a21.71,21.71,0,0,1,5.58,2.71,33.25,33.25,0,0,1,11.22-1.32,43,43,0,0,1,6.42.56,31.38,31.38,0,0,1,6.34,2c4.68,1.82,9.42,3.61,14.55,3.06a23.24,23.24,0,0,0,11.66-5c7.73-6.09,10.94-15.56,11.1-25a57.68,57.68,0,0,0-1.72-14.57,41.16,41.16,0,0,0-5.42-13.09c-4.21-6.36-11.69-11.24-19.5-10.67a32.57,32.57,0,0,0-3.8.7,1.45,1.45,0,0,1-.79-2.8,19.56,19.56,0,0,1,4.95-.86,37.45,37.45,0,0,1,10.08.29A35.7,35.7,0,0,1,462,105a35.21,35.21,0,0,1,6.9,16,40.31,40.31,0,0,0,.84-9.17,39.08,39.08,0,0,0-11.35-26.68,41.92,41.92,0,0,0-25.3-12c-1.53-.15-2.17-2.57-.39-2.86l.39,0h0c9.74-1.46,19.31.43,28.57,3.34-.57-.32-1.13-.65-1.72-1a57.5,57.5,0,0,0-31.92-6c-1.59.16-3.8,1.06-4.83-.52a3.24,3.24,0,0,1-.42-2.69,1.48,1.48,0,0,1,.11-.89A18.76,18.76,0,0,0,424,50c-2.22-7.94-10.87-12-18.63-13-9.64-1.28-19.21,1.74-28,5.26-1.32.52-2.18-1.14-1.68-2.14a41.84,41.84,0,0,1,15.77-17,45.46,45.46,0,0,0-32.66,18,1.52,1.52,0,0,1-1,.62c-3.49,2.39-8.58,2.83-12.69,2.43-4.76-.47-8.69-3-13-4.84a20,20,0,0,0-11.4-1.25c-6.85,1.17-15.21,4.73-18.24,11.3-.76,1.65-3.18.32-2.62-1.3-3.37-2.45-8.07-2.06-11.85-.69-8.39,3-15.81,10.88-25.52,8.56-7.38-1.77-11.09-8.34-13.23-15-1.56,5.06-2.66,10.4-1.32,15.52,1.27,4.83,5,9.8,10.38,10.47,1.39.18,2.1,1.89.75,2.71a40.59,40.59,0,0,0-10,8.79c-2.69,3.22-5.3,7.19-5.79,11.42a1.72,1.72,0,0,1-.19.58,1.18,1.18,0,0,1-1.4,1.06,17.57,17.57,0,0,0-14.36,4.89c-8.21,8.07-3.16,20.32-6.83,30.05A24.26,24.26,0,0,1,210,138.62a19.22,19.22,0,0,0,6-3.27,1.57,1.57,0,0,1,2.55,1.4,1.68,1.68,0,0,1,0,.44,36.61,36.61,0,0,0,1.15,21.5,18.74,18.74,0,0,0,4.94,7.41,31.9,31.9,0,0,0,10,5.77,47.2,47.2,0,0,0,24.38,1.8,73.91,73.91,0,0,0,12.76-3.5c4.09-1.49,7.93-3.45,11.94-5.11,7.32-3,16-4.93,23.67-1.93Z" transform="translate(-5 -6)" style="fill:#fff"/><path d="M497.73,389.19a42.72,42.72,0,0,1,4.66,8.49,42.21,42.21,0,0,1,3.06,14.14,45,45,0,0,1-2.24,15c-2.74,8.86-7.84,21,0,28.89a1.46,1.46,0,0,1-.65,2.43c-3.3,1-6.74-1-9.24-2.89a24.52,24.52,0,0,1-5.47-5.66c-.2.4-.41.79-.64,1.18,2.22.21,3.64,2.43,3.62,4.48,0,2.48-1.51,4.95-2.3,7.26a69,69,0,0,0-2.13,7.46,69.75,69.75,0,0,0-1.34,8.14,77.06,77.06,0,0,0,15.84-16.47A80.44,80.44,0,0,0,515.61,420c.42-7.46,0-15.5-2.36-22.66-1.13-3.38-2.95-6.4-6.46-7.71C504.14,388.6,500.4,387.88,497.73,389.19Z" transform="translate(-5 -6)" style="fill:#fff"/><path d="M554.3,685.7c-.72-9.51-1.24-19.23-3.18-28.59C548.41,644,541,631.18,529.31,623.88c-6.58-4.13-14-6.69-21.46-8.89-8.34-2.48-16.77-4.68-25.25-6.67q-23.09-5.42-46.65-8.54a9.72,9.72,0,0,0-7.74,2.37l-.06.05a9.66,9.66,0,0,0-3.14,5.3c-2.25,10.88-9,20.41-17.86,27.35-22,17.25-51.54,15.91-77.84,11.39-12.73-2.18-26.84-4.81-36.92-13.34a39.41,39.41,0,0,1-10.31-13.85c-2.3-5.12-3.58-10.67-2.72-16.25h0a29.78,29.78,0,0,1-5.83-3.75l-.09,0q-3.09.38-6.17.82a484.4,484.4,0,0,0-50.8,10.39c-8.1,2.06-16.18,4.24-24.2,6.61-7.7,2.28-15.4,5-22.15,9.34a45.9,45.9,0,0,0-15.19,16.89,56.57,56.57,0,0,0-6.11,17c-.76,4.45-1.11,9-1.44,13.48-.43,5.8-2.53,18.61-3,24.4-.47,6.12-.5,6.49,3.62,5.63a9.57,9.57,0,0,0,1.58-.47L187,688.61a9.83,9.83,0,0,1,3.12-.66L474.9,674.5a9.76,9.76,0,0,1,3.48.46l76.55,24.62c0-.4-2.48-.72-3.92-.87a10.24,10.24,0,0,1-2.18-.48C533.16,692.91,555,695.15,554.3,685.7Z" transform="translate(-5 -6)" style="fill:#fff"/><path d="M393.49,161.24a1.44,1.44,0,0,1-.25-.18,20.83,20.83,0,0,0-7.25-3.19c-5.38-1.4-10.9-2.45-16.36-3.52A129.74,129.74,0,0,0,352,151.92c-.82,0-1.63-.08-2.44-.1a43.88,43.88,0,0,1,12.6,5.4c1.6,1,.11,3.52-1.5,2.5a41.83,41.83,0,0,0-17.26-6.18A44.35,44.35,0,0,0,320,157.16a27.39,27.39,0,0,0-8.95,6.33,20.71,20.71,0,0,0-4.46,8.1,48.18,48.18,0,0,1,8.5-3.46,117.85,117.85,0,0,1,19.85-4.4,130.33,130.33,0,0,1,21-1.52c15.46.3,29.76,6.73,43.55,13.11-.36-4.66-1.4-9.64-4.81-13.06A13.88,13.88,0,0,0,393.49,161.24Z" transform="translate(-5 -6)" style="fill:#fff"/><path d="M192.49,361.82a1.58,1.58,0,0,1,1.1,2.17c-1.54,3.33-1.25,7.59-.93,11.13a43.18,43.18,0,0,0,2.1,10.28,16.81,16.81,0,0,1,6.83-.27,1.21,1.21,0,0,1,.85.49,1.47,1.47,0,0,1,.81.56c1.3,1.7,1.82,4.07,2.26,6.11a45.12,45.12,0,0,1,1,8,14.58,14.58,0,0,1-.67,5.8c-1.27,3.2-3.19,6.14-4.16,9.45-2.06,7,1.13,14.22,4.53,20.32,2.92,5.25,6.23,11.15,10.38,16.17a1.18,1.18,0,0,1,1,1,1.55,1.55,0,0,1,0,.21,33.16,33.16,0,0,0,9.46,7.64,1.52,1.52,0,0,1,.83.41c.46.22.94.43,1.42.62-8.66-10.44-6.62-25.12-5-37.49a92.3,92.3,0,0,0,1-12.42,46.15,46.15,0,0,0-1.54-11.44c-1.88-7.23-4.91-14.16-6.25-21.54a36.93,36.93,0,0,1-.39-11.3A56.6,56.6,0,0,1,220,356.57c2.62-7.59,5.75-14.91,7.52-22.76a96.55,96.55,0,0,0,2.26-24.26c-.24-6.84-2.12-14.19-.11-20.91a14.42,14.42,0,0,1,5.7-7.81A30.36,30.36,0,0,1,244.6,277c7.71-2.14,15.45-4.22,23.17-6.31a.63.63,0,0,0,0-.09,1.55,1.55,0,0,1,2-.52l.18.07a1.29,1.29,0,0,1,.9.36c4.52,1.63,9.6,1,14.13-.33a32.22,32.22,0,0,1,7-12.27c1.27-1.4,3.36.66,2.1,2.05a28.78,28.78,0,0,0,1.18,40.29,34.16,34.16,0,0,1,0-5.81,30.78,30.78,0,0,1,5.42-15.34,29.58,29.58,0,0,1,12.07-9.69,1.47,1.47,0,0,1,1.71-.89,108.19,108.19,0,0,0,21.21,2.6,63.5,63.5,0,0,0,20.93-2.66l.26-.06a1.65,1.65,0,0,1,2.58,0,54.08,54.08,0,0,1,5.62,9.53c4.67,10.13,7.12,22.06,5.21,33.19a53.47,53.47,0,0,0,9.76-16.05,29.54,29.54,0,0,0-.88-22.66,1.47,1.47,0,0,1,.07-1.39,1.56,1.56,0,0,1,1.36-1.2c8.9-1,17.88-2.11,26.87-1.54,12.91.81,26.3,5.3,34.2,15.85a34.93,34.93,0,0,1,6.6,24.06,55.18,55.18,0,0,0,4.24-10.67,45.53,45.53,0,0,0,.73-20.6,1.54,1.54,0,0,1,2.65-1.3l.37,0a15.64,15.64,0,0,1,7.26,4.35,28.6,28.6,0,0,1,5.66,7.51c1.67,3.25,2,6.63,2,10.24s.1,7.52,2.77,10.22a1.33,1.33,0,0,1,.29,1.56,1.36,1.36,0,0,1,0,.69A82.94,82.94,0,0,0,472,322c-1.68,14.07-.47,29.82,7.66,42a1.37,1.37,0,0,1,.24.7,1.26,1.26,0,0,1,.09,1,83.86,83.86,0,0,0-3.61,25.4c.09,7.76,1.49,15.41,2.27,23.12a88.34,88.34,0,0,1-.29,23.37c-1.59,9.46-5.08,19.42-12.62,25.67,10.54-2.35,19.46-10.81,21.7-21.28.39-1.83,3.26-1.05,2.87.77a27.07,27.07,0,0,1-1,3.47,20.12,20.12,0,0,0,5.35,6.41,13.76,13.76,0,0,0,4.45,2.66,20.52,20.52,0,0,1-2.93-12.08c.23-5.48,2.14-10.66,3.79-15.85a45,45,0,0,0,2.56-15.18A39.14,39.14,0,0,0,491.28,386c-1.33-1.34.77-3.4,2.1-2.05.91.91,1.76,1.87,2.57,2.85a1.07,1.07,0,0,1,.21-.13,11.32,11.32,0,0,1,5.27-1.09,1.45,1.45,0,0,1,.13-.94c2.6-5.34,3.52-11.51,3.8-17.37a49.65,49.65,0,0,0-1.66-16.76,1.52,1.52,0,0,1-.41-2.31c4-4.61,5.59-10.91,6.14-16.82a64.79,64.79,0,0,0-1.15-18.89,1.4,1.4,0,0,1,.56-1.47,1.22,1.22,0,0,1,1.28-.7,1.34,1.34,0,0,0,1.19-.36,6.1,6.1,0,0,0,1.43-1.65,26.34,26.34,0,0,0,2.79-6.28A79.18,79.18,0,0,0,518.2,291a19.55,19.55,0,0,1-11.46,6.3c-1.36.21-2.62-1.34-1.45-2.43,2.65-2.46,4.68-6.57,3.74-10.21-.87-3.38-3.58-6.39-6.25-8.59a1.18,1.18,0,0,1-.48-1.1,1.42,1.42,0,0,1-.05-.52,42.06,42.06,0,0,0-.14-8.76,27.8,27.8,0,0,0-5.66-14c-3.9-4.8-9.49-7.63-15.51-9a2.47,2.47,0,0,1-1.28-2c.7-10.64-7.21-19.35-14.11-26.65-.92-1,0-3,1.45-2.43a103,103,0,0,1,31.87,19.76c-.92-1.23-1.88-2.42-2.9-3.57a72,72,0,0,0-24.42-17.63c-8.66-3.91-17.85-6.45-27-9.1a1.36,1.36,0,0,1-1-1.2,31.79,31.79,0,0,0-6-7.79c-8.81-8.36-21.73-12.78-33.95-12.49a1.53,1.53,0,0,1-1.49.09c-8.33-3.84-16.63-7.81-25.37-10.7a70.94,70.94,0,0,0-23.28-3.92,138.85,138.85,0,0,0-19.95,1.76,109.13,109.13,0,0,0-18.64,4.41c-3.23,1.11-7.43,2.6-9.95,5.08a1.47,1.47,0,0,1-1.07,1.2,1.62,1.62,0,0,1-2,.19,67.46,67.46,0,0,0-21.08,5.68,74.64,74.64,0,0,0-19,11.91,1.55,1.55,0,0,1-1.36,2,37.94,37.94,0,0,0-11.5,2.77c-13.18,5.39-23.89,17.1-28.59,30.2a1.44,1.44,0,0,1-1,.94,1.82,1.82,0,0,1-.31.16c-12.37,4.93-20.33,18.71-20.55,31.55a41.76,41.76,0,0,1,3.5-3.27c1.46-1.19,3.57.85,2.1,2.06a41.07,41.07,0,0,0-10.11,12.49c-10.73,20.13-5.41,43.47-.41,64.38a.27.27,0,0,0,.07.08c1.35,1.33-.75,3.38-2.1,2.06-5.37-5.25-8.86-12.19-11.93-19a24.3,24.3,0,0,0-2.49,8.46c-.67,6.31.94,12.59,3.56,18.34,2.26,4.95,5.65,10.54,11.13,12.53A1.46,1.46,0,0,1,192.49,361.82Z" transform="translate(-5 -6)" style="fill:#fff"/><path d="M259.33,422.52a43.15,43.15,0,0,0,14.32,5.76,30.33,30.33,0,0,0,12.62-.28c9-2,17.89-6.64,24.15-13.35a1.35,1.35,0,0,1-.11-.46,4.31,4.31,0,0,0-.17-.88,10.23,10.23,0,0,0-.35-1.11,17.9,17.9,0,0,0-1.05-2.27,43.17,43.17,0,0,0-3.35-5.25,48.62,48.62,0,0,0-3.73-4.52c-.57-.6-1.15-1.19-1.78-1.74a4.43,4.43,0,0,0-1.21-.9,1.29,1.29,0,0,1-.71-1.36l-1-.18a94.07,94.07,0,0,0-22.49-.85q-2.87.25-5.73.73a1.26,1.26,0,0,1-.84.49,35.27,35.27,0,0,0-13.66,4.88,18.22,18.22,0,0,0-7.57,10.13A48.26,48.26,0,0,0,259.33,422.52Zm21.59-25.78a12.1,12.1,0,1,1,0,24.19c-6.84,0-13.37-5.42-13.37-12.1S274.08,396.74,280.92,396.74Z" transform="translate(-5 -6)" style="fill:#fff"/><path d="M380.89,440c2,4,4.63,7.87,8.64,10.18,4.45,2.56,9.83,3,14.87,3.51,5.76.53,11.55.8,17.33.81a115.73,115.73,0,0,0,16.23-.82c4.69-.67,9.49-2,13.23-5,8.07-6.43,9.68-17.27,11-26.73.73-5.38,1.95-10.74,2.45-16.15.44-4.71.11-9.69-2.46-13.83-2.46-4-6.74-5.78-11.21-6.72a119.06,119.06,0,0,0-12.64-1.65q-13-1.28-26.06-1.51a198.46,198.46,0,0,0-24.63.85,70.47,70.47,0,0,0-9.37,1.57,21.83,21.83,0,0,0-6.13,2.31,1.31,1.31,0,0,1,0,.39,56.78,56.78,0,0,0-1.17,7.65c-.84,10.56,1.15,21.12,4.43,31.15A102.13,102.13,0,0,0,380.89,440Zm5.41-31.21a41.37,41.37,0,0,1,3.54-5.61,54,54,0,0,1,4.2-5.11c.31-.34.65-.68,1-1-1.69.39-3.36.83-5,1.34a1.45,1.45,0,0,1-.79-2.8,78.36,78.36,0,0,1,11.34-2.52,96.32,96.32,0,0,1,23.32-.83c7.26.68,14.75,2.24,21,6.11a1.46,1.46,0,0,1,.53.55l.16.11a21.25,21.25,0,0,1,8.56,11.81,1.39,1.39,0,0,1-.05.91,1.15,1.15,0,0,1-.27,1,52.31,52.31,0,0,1-13.49,12.09,46.3,46.3,0,0,1-15.18,6.23,34.13,34.13,0,0,1-13.91-.14c-9.7-2.07-19.39-7.1-26.07-14.34a1.35,1.35,0,0,1-.32-1.42,1.24,1.24,0,0,1-.31-1A14.45,14.45,0,0,1,386.3,408.83Z" transform="translate(-5 -6)" style="fill:#fff"/><path d="M398.79,608.14a68.84,68.84,0,0,1-17,11.57c-11.23,5.38-24.06,8-36.53,6.38a79.06,79.06,0,0,1-35.13-14.25.46.46,0,0,1-.07-.07c-6.37,2-13.85-1.59-17.9-6.49a23,23,0,0,1-9.95-1.3c-.75,5.7,1.2,11.61,3.95,16.56a35.24,35.24,0,0,0,12.59,13.27c11.08,6.65,24.66,8.69,37.31,10.59,13.59,2,27.67,3,41.27.46,11.28-2.11,21.94-6.75,30.49-14.34,7.27-6.45,12.8-14.92,14.5-24.41a22.25,22.25,0,0,1-3.39,1.27C412.42,609.18,405.44,608.88,398.79,608.14Z" transform="translate(-5 -6)" style="fill:#fff"/><path d="M227.21,395c3.12,13.5,2.82,27.44,4.07,41.16.47,5.13,1,10.77,3.2,15.51,2.44,5.18,7.81,8.26,13.29,9.59,5.92,1.45,12.31,1.59,18.37,1.87,6.68.31,13.4.44,20.09.19a101.84,101.84,0,0,0,19.91-2.57c7.42-1.79,14.15-5.27,18.51-11.58s6.06-13.52,6.9-20.82c.88-7.58,1.53-15.74,7.24-21.52a15.24,15.24,0,0,1,8.81-4.59,12.72,12.72,0,0,1,9.32,2.71c5.42,4.18,7.57,11.07,9.08,17.37,1.59,6.61,2.56,13.41,4.95,19.81A25.4,25.4,0,0,0,384.41,457a54.22,54.22,0,0,0,11.32,3.37q6.69,1.39,13.49,2.18a145.26,145.26,0,0,0,26.62.73c7.28-.51,15.12-2,20.9-6.61,6-4.83,8.72-12.21,10.66-19.32,4.59-16.83,4.13-34.19,4.51-51.45a1.36,1.36,0,0,1,.39-1,8,8,0,0,0-1.45-3.14c-2.78-3.72-7.55-4.89-12-5.17-5.15-.31-10.36-.07-15.52,0l-32.95.19c-5.39,0-10.77.09-16.16.09-3.83,0-7.67-.29-11.5-.33a37.83,37.83,0,0,0-11.57,1.24,9.59,9.59,0,0,0-4.38,2.52,18.42,18.42,0,0,0-2.6,4.59c-1.53,3.29-3.45,6-7.08,7.26s-7.57,1-11.23.49-6.64-1.55-8.54-4.7c-.84-1.41-1.42-2.95-2.27-4.36a13,13,0,0,0-4-4.09c-3.48-2.31-7.67-3.24-11.79-3.73-4.45-.52-8.94-.74-13.4-1.14q-16.05-1.44-32.19-1.57c-10.79-.1-21.6.22-32.36,1a43.27,43.27,0,0,0-7.17,1,11.62,11.62,0,0,0-5.34,2.44,16.86,16.86,0,0,0-4.63,8,1.25,1.25,0,0,1,.22.37A58.34,58.34,0,0,1,227.21,395Zm142-8.51a1.35,1.35,0,0,1,.46-.76,1.39,1.39,0,0,1,.68-1.23,18.37,18.37,0,0,1,3.09-1.5c6.24-2.44,13.37-3,20-3.41a250.69,250.69,0,0,1,27-.1c9,.39,18.07,1.1,27,2.31,4.75.64,9.66,1.64,13.51,4.6s5.87,7.58,6.51,12.26c.77,5.56-.39,11.12-1.34,16.58-1,5.74-1.47,11.56-2.75,17.24a36.64,36.64,0,0,1-5.83,13.74A24.28,24.28,0,0,1,446,454.78c-4.79,1.73-10,2.2-15,2.44-6.18.3-12.38.29-18.56,0a106.17,106.17,0,0,1-17.17-1.81A22.38,22.38,0,0,1,382.53,448c-3.16-3.79-5.15-8.3-7-12.82a120.31,120.31,0,0,1-5.24-15.87C367.64,408.6,366.8,397.38,369.22,386.51Zm-135.31-1.92c3.55-3,8.62-3.55,13.08-4.26q9-1.44,18.12-2.23a252,252,0,0,1,36.66-.51c9.28.55,21.23,1,25.87,10.41,2.08,4.24,2.34,9.06,2.16,13.69-.22,5.49-.73,11-1.48,16.47-1.42,10.16-4.57,20.54-12,28.11-7,7.09-16.75,9.84-26.52,10.48a121.91,121.91,0,0,1-15.29-.17c-4.56-.29-9.13-.47-13.69-.86-8.33-.71-18-2.72-22.24-10.66-2.17-4.07-2.76-8.74-3.28-13.24s-1.2-9.14-1.72-13.73c-1-9.19-1.46-18.44-1.9-27.67a1.28,1.28,0,0,1-.23-.85A6.91,6.91,0,0,1,233.91,384.59Z" transform="translate(-5 -6)" style="fill:#fff"/><path d="M216.71,478.68a117.23,117.23,0,0,0-1.85-24.24,107.81,107.81,0,0,1-11.64-17.89c-3.43-6.3-6.31-13.49-4.67-20.72.8-3.52,2.75-6.6,4.17-9.88a12.69,12.69,0,0,0,.82-5.79,40.87,40.87,0,0,0-1-7.38,14.25,14.25,0,0,0-1.7-4.85h-.08c-7.65-1.28-14.6,4.57-17.59,11-3.47,7.48-2.42,16.33-1,24.15a137.63,137.63,0,0,0,6.13,24c5,13.43,14.25,26.45,28.39,31.69Z" transform="translate(-5 -6)" style="fill:#fff"/><path d="M406.54,512.17c-1.27-.17-2.63,0-3.91-.06-3.25-.11-6.5-.34-9.74-.56l-8.32-.13-66.93-1c-5.35-.08-10.73-.3-16.09-.17-4.78.11-9.72.72-13.85,3.23-3.36,2.06-6.19,5.41-6.36,9.43-.19,4.36,2.38,8.4,5.7,11.13,3.63,3,8.28,4.56,12.77,5.85,5.07,1.46,10.2,2.76,15.35,3.95A176.15,176.15,0,0,0,347,548.48c18.79.82,38.3-2.66,54.09-13.12,6.1-4.05,17.37-12.31,10.45-20.27A8.28,8.28,0,0,0,406.54,512.17Zm-2.8,5.81c-4.63,1.51-9.33,2.82-14.06,4a1.64,1.64,0,0,1-.2.64,41.72,41.72,0,0,1-14.62,14.6c-11.15,6.73-24.33,8.27-37,5.79a57.94,57.94,0,0,1-33.29-19.18,1.44,1.44,0,0,1-.34-1.19q-6.93-1.54-13.72-3.62a1.45,1.45,0,0,1,.79-2.8q6.54,2,13.24,3.52a1.49,1.49,0,0,1,.68-.46c13.1-4.44,28.27-6.09,41.31-.61a28.53,28.53,0,0,1,6.94-1.83,86.61,86.61,0,0,1,17.41-.7,78.53,78.53,0,0,1,17.47,2.59,1.33,1.33,0,0,1,.69.42c4.7-1.14,9.36-2.44,13.95-3.94C404.77,514.58,405.54,517.39,403.74,518Z" transform="translate(-5 -6)" style="fill:#fff"/><path d="M308.14,523.46a53.24,53.24,0,0,0,14.59,11.22c10.65,5.57,23.74,8.1,35.67,5.75,11-2.18,21.29-8.29,27.43-17.57q-3.22.71-6.47,1.3A189.76,189.76,0,0,1,308.14,523.46Z" transform="translate(-5 -6)" style="fill:#fff"/><path d="M383.1,520.44a89.15,89.15,0,0,0-17.16-1.56,83.34,83.34,0,0,0-10.48.56,28,28,0,0,0-7.68,1.79,1.52,1.52,0,0,1-.92.11,1.54,1.54,0,0,1-1.33,0c-11.13-4.87-24.15-3.83-35.71-.52q2.73.54,5.49,1A185.71,185.71,0,0,0,383.1,520.44Z" transform="translate(-5 -6)" style="fill:#fff"/><path d="M436.09,581.29a1.18,1.18,0,0,1,1.07-1.35,30.85,30.85,0,0,0,13.39-5.82c3.59-2.73,6.84-6.59,7.12-11.2a1.57,1.57,0,0,1,2.42-1.16c3.05-.55,6.46-1.76,8.63-3.84a14.36,14.36,0,0,0,2.91-5c.78-2,1.38-4,2-6a125.16,125.16,0,0,0,4.85-39.88,1.36,1.36,0,0,1,1.64-1.39,11.45,11.45,0,0,0,1.5-3.35,17.94,17.94,0,0,0,.86-5,54.1,54.1,0,0,0-.55-5.51c-.19-2.13-.27-4.27-.27-6.41a75.47,75.47,0,0,1,1.24-13.16,72.37,72.37,0,0,1,3.51-12.59c.54-1.43,2.26-4.19,1.07-5.63-1-1.25-3,.92-3.45,1.79a1.27,1.27,0,0,1-1.08.72,33,33,0,0,1-7.43,5.92c-1.56,15-7.34,30.08-17.44,41.58a1.51,1.51,0,0,1-2.33-.3l-1.33-2.31a31.26,31.26,0,0,1-7.69,19.95c-.92,1.06-2.41.09-2.53-1a25.08,25.08,0,0,0-.82-4.07A27.26,27.26,0,0,1,439,529.59a1.4,1.4,0,0,1-1.14.67,1.53,1.53,0,0,1-2.49-.62c-3.77-12.15-10-24.5-22.84-29.38-12.26-4.67-25.64-2.64-38.25-.73a143.49,143.49,0,0,1-21,2.07,206.33,206.33,0,0,1-21.94-1.45c-13.7-1.4-28-2.89-41.38,1.08-10.29,3-20.14,9.85-24.17,19.89-.42,1-2.09,1.59-2.72.35-.3-.62-.61-1.23-.92-1.85a31.58,31.58,0,0,1-.23,4.85,1.5,1.5,0,0,1-2.92.39,75.82,75.82,0,0,0-9.87-17.66,12.67,12.67,0,0,1-.25,2,1.52,1.52,0,0,1-2.49.64,49.29,49.29,0,0,1-7.86-8.47,69.25,69.25,0,0,1-13.16-38.11,33.73,33.73,0,0,1-6.92-5c.35,2.44.63,4.89.82,7.35a131.07,131.07,0,0,1-.28,23.77,104.33,104.33,0,0,1-1.69,11c-.41,2-1.07,4.08-.55,6.07.36,1.37,1.69,2.86,3.28,2.45a1.4,1.4,0,0,1,1,.07,1.26,1.26,0,0,1,1.07,1.36,57.54,57.54,0,0,0,1.48,15.8c4.25,18.14,16.53,35.56,34.33,43.12a1.54,1.54,0,0,1,1.28,1c1.39,3.43,2.83,6.86,4.45,10.2,2.84,5.87,6.18,11.75,11.26,16.05,4.93,4.16,11.59,6.93,18.18,5.81a1.59,1.59,0,0,1,1.83,1.83,16.93,16.93,0,0,0,6.59,4.37c2.64,1,5.8,1.49,8.45.25a1.59,1.59,0,0,1,2.2,1,81.76,81.76,0,0,0,17.44,9.35,68,68,0,0,0,18.06,4.39,58.66,58.66,0,0,0,17.87-1.22,67.13,67.13,0,0,0,30.69-15.74,1.22,1.22,0,0,1,1.41-1.4,81.94,81.94,0,0,0,11.07.67,36.31,36.31,0,0,0,9.9-1.34,19.84,19.84,0,0,0,8.09-4.91,31.46,31.46,0,0,0,9.36-18.11Zm-24.32-50.8a57.64,57.64,0,0,1-11.58,8.88C382.64,550,361.31,552.75,341.05,551a208.61,208.61,0,0,1-33.63-6.08c-9.5-2.43-21-4.71-26.56-13.48-2.41-3.78-3.32-8.53-1.59-12.75a17.34,17.34,0,0,1,8.83-8.76c4.81-2.25,10.24-2.64,15.5-2.64,5.92,0,11.84.16,17.75.26l68.24,1a1.38,1.38,0,0,1,.7-.12c2.52.16,5,.34,7.56.49,1.75.11,3.51.21,5.26.26a28.27,28.27,0,0,1,4.51.2,12,12,0,0,1,8.77,8.77C417.5,522.89,415,527.19,411.77,530.49Z" transform="translate(-5 -6)" style="fill:#fff"/><path d="M235,397.37c.44,8.47,1,16.92,2.13,25.34.58,4.3,1,8.65,1.67,12.93.66,4,1.7,8.12,4.69,11.1,5.78,5.77,15.17,6,22.88,6.44,9.09.48,18.26,1.47,27.34.3,9.35-1.2,18-5.11,23.51-12.8,6-8.3,7.88-18.49,8.83-28.39a108.53,108.53,0,0,0,.81-14.74c-.19-4.23-1.19-8.65-4.39-11.71s-7.74-4.1-12-4.64c-5.42-.68-10.94-.89-16.4-1a251.2,251.2,0,0,0-34.47,1.39c-5.64.61-11.29,1.36-16.87,2.44-2.87.55-7.68,1.77-8.24,5.14a1.53,1.53,0,0,1,.13.54C234.73,392.24,234.85,394.81,235,397.37Zm8.7,13.49a21.28,21.28,0,0,1,8.55-11.81l.17-.11a1.46,1.46,0,0,1,.53-.55A38.43,38.43,0,0,1,264,393.91a78.14,78.14,0,0,1,23.18-1.84,89.26,89.26,0,0,1,21.41,3.56,1.45,1.45,0,0,1-.79,2.8c-1.65-.51-3.31-.94-5-1.32.33.33.66.67,1,1a54,54,0,0,1,4.2,5.11,42.38,42.38,0,0,1,3.54,5.61,14.45,14.45,0,0,1,1.78,5.36,1.24,1.24,0,0,1-.31,1,1.37,1.37,0,0,1-.32,1.42,46.69,46.69,0,0,1-13.71,10,52,52,0,0,1-14,4.69,33.87,33.87,0,0,1-14.17-.6A50.8,50.8,0,0,1,244,412.73a1.15,1.15,0,0,1-.26-1A1.27,1.27,0,0,1,243.68,410.86Z" transform="translate(-5 -6)" style="fill:#fff"/><path d="M554.36,668.81c-2.23-10.25-6.78-20.45-14.29-28.06-8.06-8.18-19.16-12.17-30.05-15.36a477.28,477.28,0,0,0-75.93-15.58,28.58,28.58,0,0,1-5.58,5.07c-1.48,12.24-8.64,23-18.39,30.62-22,17.24-51.54,15.9-77.83,11.39-12.74-2.19-26.85-4.82-36.93-13.34a39.45,39.45,0,0,1-10.31-13.86c-2.3-5.11-3.58-10.66-2.72-16.24h0a30.25,30.25,0,0,1-5.83-3.75l-.08,0a412.36,412.36,0,0,0-42.62,7.74q-18.6,4.26-36.94,9.6c-11.44,3.32-23.08,7.41-31.41,16.16-15.47,16.24-16,39.67-17.07,60.61l18.7-4.27a156.17,156.17,0,0,1,41.57-3.77,105.52,105.52,0,0,1,11.22,1.13l38.64,5.84a155.72,155.72,0,0,0,33.35,1.42c10-.65,20.43-1.63,24.12-2.34l100.17-19.32A171,171,0,0,1,495.43,686l62.38,17.83c0-.05,0-.09,0-.14C557.14,692.06,556.84,680.23,554.36,668.81Z" transform="translate(-5 -6)" style="fill:#65d6ad"/><path d="M199.42,363.76a1.57,1.57,0,0,1,1.1,2.16c-1.54,3.34-1.25,7.59-.92,11.13a42.66,42.66,0,0,0,2.09,10.29,16.85,16.85,0,0,1,6.84-.28,1.29,1.29,0,0,1,.85.49,1.55,1.55,0,0,1,.8.56,15.42,15.42,0,0,1,2.26,6.12,44.89,44.89,0,0,1,1,8,14.4,14.4,0,0,1-.67,5.8c-1.27,3.2-3.19,6.15-4.16,9.46-2.06,7,1.13,14.21,4.53,20.32,2.93,5.24,6.23,11.15,10.39,16.16a1.22,1.22,0,0,1,1,1,1.55,1.55,0,0,0,0,.21,33,33,0,0,0,9.45,7.65,1.52,1.52,0,0,1,.83.41c.47.22.94.42,1.42.61-8.66-10.43-6.62-25.11-5-37.49a90.55,90.55,0,0,0,1-12.41,46,46,0,0,0-1.54-11.44c-1.87-7.24-4.91-14.17-6.24-21.54a37,37,0,0,1-.4-11.31,56.27,56.27,0,0,1,2.78-11.18c2.61-7.58,5.74-14.91,7.51-22.76a95.51,95.51,0,0,0,2.26-24.25c-.23-6.84-2.12-14.19-.1-20.92a14.43,14.43,0,0,1,5.69-7.81,30.45,30.45,0,0,1,9.26-3.81c7.72-2.15,15.45-4.22,23.17-6.32l.05-.09a1.55,1.55,0,0,1,2-.52l.17.07a1.33,1.33,0,0,1,.9.36c4.53,1.64,9.6,1,14.14-.33a32.21,32.21,0,0,1,7-12.27c1.27-1.4,3.37.66,2.1,2.06a28.76,28.76,0,0,0,1.18,40.28,36.35,36.35,0,0,1,0-5.81A30.81,30.81,0,0,1,307.63,281a29.63,29.63,0,0,1,12.07-9.68,1.47,1.47,0,0,1,1.72-.89,108.85,108.85,0,0,0,21.2,2.6,64,64,0,0,0,20.93-2.66,1.31,1.31,0,0,1,.27-.06,1.64,1.64,0,0,1,2.57,0,53.72,53.72,0,0,1,5.62,9.53c4.68,10.13,7.12,22.05,5.21,33.19A53.19,53.19,0,0,0,387,297a29.58,29.58,0,0,0-.87-22.66,1.43,1.43,0,0,1,.06-1.38,1.56,1.56,0,0,1,1.36-1.2c8.91-1,17.88-2.11,26.87-1.55,12.91.81,26.3,5.31,34.2,15.85a35,35,0,0,1,6.6,24.07,54.39,54.39,0,0,0,4.24-10.68,45.38,45.38,0,0,0,.73-20.6,1.54,1.54,0,0,1,2.65-1.29,1.18,1.18,0,0,1,.37,0,15.57,15.57,0,0,1,7.26,4.34,28.93,28.93,0,0,1,5.66,7.51c1.67,3.26,2,6.64,2,10.24s.09,7.52,2.77,10.22a1.33,1.33,0,0,1,.28,1.56,1.4,1.4,0,0,1,0,.7,82.8,82.8,0,0,0-2.29,11.76c-1.68,14.08-.46,29.83,7.66,42a1.34,1.34,0,0,1,.24.7,1.3,1.3,0,0,1,.1,1,84.09,84.09,0,0,0-3.62,25.4c.09,7.76,1.5,15.41,2.27,23.11a87.91,87.91,0,0,1-.29,23.37c-1.58,9.46-5.07,19.42-12.62,25.67,10.54-2.34,19.46-10.8,21.7-21.27.4-1.83,3.26-1.05,2.87.77a27.51,27.51,0,0,1-1,3.47,19.82,19.82,0,0,0,5.34,6.4,13.61,13.61,0,0,0,4.45,2.67,20.63,20.63,0,0,1-2.93-12.08c.24-5.48,2.14-10.67,3.8-15.85a45,45,0,0,0,2.55-15.19A39.13,39.13,0,0,0,498.22,388a1.47,1.47,0,0,1,2.1-2.06c.9.92,1.75,1.87,2.56,2.86a1.53,1.53,0,0,1,.21-.14,11.46,11.46,0,0,1,5.27-1.08,1.45,1.45,0,0,1,.13-.94c2.6-5.35,3.52-11.51,3.81-17.37a49.88,49.88,0,0,0-1.67-16.76,1.52,1.52,0,0,1-.41-2.31c4-4.62,5.59-10.92,6.14-16.82a64.86,64.86,0,0,0-1.15-18.9,1.42,1.42,0,0,1,.57-1.47,1.22,1.22,0,0,1,1.28-.69,1.33,1.33,0,0,0,1.18-.36,6.34,6.34,0,0,0,1.44-1.66,26.14,26.14,0,0,0,2.78-6.28A78.7,78.7,0,0,0,525.13,293a19.53,19.53,0,0,1-11.46,6.29c-1.36.22-2.62-1.33-1.45-2.42,2.65-2.46,4.68-6.57,3.74-10.21-.87-3.39-3.58-6.39-6.25-8.59a1.19,1.19,0,0,1-.48-1.1,1.42,1.42,0,0,1-.05-.52,40.73,40.73,0,0,0-.14-8.76,27.76,27.76,0,0,0-5.66-14c-3.89-4.8-9.48-7.63-15.5-9a1.26,1.26,0,0,1-1.05-1.08,1.28,1.28,0,0,1-.23-.88c.69-10.64-7.22-19.34-14.12-26.65-.91-1,0-3,1.45-2.42a102.83,102.83,0,0,1,31.87,19.76c-.92-1.23-1.88-2.42-2.9-3.57a72,72,0,0,0-24.42-17.63c-8.66-3.91-17.85-6.45-27-9.1a1.35,1.35,0,0,1-1-1.2,31.89,31.89,0,0,0-6-7.79c-8.81-8.37-21.73-12.79-33.95-12.5a1.48,1.48,0,0,1-1.48.09c-8.33-3.83-16.63-7.81-25.38-10.69A70.91,70.91,0,0,0,360.35,167a140.29,140.29,0,0,0-20,1.76,111.27,111.27,0,0,0-18.64,4.41c-3.23,1.12-7.42,2.6-9.95,5.08a1.44,1.44,0,0,1-1.06,1.2,1.63,1.63,0,0,1-2,.2,67,67,0,0,0-21.08,5.68,74.1,74.1,0,0,0-19,11.91,1.53,1.53,0,0,1-1.35,2,38.3,38.3,0,0,0-11.51,2.77c-13.18,5.39-23.88,17.1-28.59,30.21a1.44,1.44,0,0,1-1,.94,1.79,1.79,0,0,1-.31.16c-12.37,4.92-20.32,18.7-20.54,31.55a37.49,37.49,0,0,1,3.5-3.27c1.45-1.2,3.56.85,2.1,2.05a41.23,41.23,0,0,0-10.12,12.49c-10.72,20.14-5.41,43.47-.41,64.39l.07.08c1.36,1.32-.74,3.37-2.1,2-5.37-5.25-8.86-12.19-11.93-19a24.58,24.58,0,0,0-2.49,8.46c-.67,6.32.94,12.6,3.57,18.34,2.26,4.95,5.65,10.54,11.12,12.54A1.46,1.46,0,0,1,199.42,363.76Z" transform="translate(-5 -6)" style="fill:#65d6ad"/><path d="M317.42,168a22.76,22.76,0,0,1,2.23-2.59c5.39-5.39,13-8.23,20.49-9.53.77-.13,1.53-.24,2.3-.33a1.16,1.16,0,0,1,1-.74,88.41,88.41,0,0,1,20.81-.82,158.47,158.47,0,0,1,19,3c5.17,1.06,10.55,1.91,15.57,3.55a21.77,21.77,0,0,1,5.59,2.71,33.19,33.19,0,0,1,11.22-1.32,43.13,43.13,0,0,1,6.42.56,32,32,0,0,1,6.34,2c4.68,1.83,9.41,3.62,14.54,3.07a23.24,23.24,0,0,0,11.66-5c7.73-6.09,10.94-15.56,11.1-25A57.67,57.67,0,0,0,464,123a41.18,41.18,0,0,0-5.43-13.09c-4.21-6.36-11.68-11.24-19.5-10.67a32.57,32.57,0,0,0-3.8.7,1.45,1.45,0,0,1-.79-2.8,19.64,19.64,0,0,1,5-.86,37.44,37.44,0,0,1,10.08.29,35.7,35.7,0,0,1,22.45,13.22,35.23,35.23,0,0,1,6.91,16,39.74,39.74,0,0,0,.83-9.17A39,39,0,0,0,468.33,90a42,42,0,0,0-25.29-12c-1.54-.15-2.17-2.56-.4-2.85l.4,0h0c9.75-1.46,19.32.43,28.58,3.34-.57-.32-1.14-.65-1.72-1a57.81,57.81,0,0,0-20.83-6,58.8,58.8,0,0,0-11.1,0c-1.59.17-3.79,1.07-4.83-.51a3.29,3.29,0,0,1-.42-2.69,1.56,1.56,0,0,1,.11-.89,18.7,18.7,0,0,0,1.1-12.5c-2.21-7.95-10.86-12-18.63-13-9.63-1.28-19.2,1.74-28,5.25-1.31.53-2.18-1.13-1.68-2.13A42,42,0,0,1,401.38,28a45.5,45.5,0,0,0-32.66,18,1.46,1.46,0,0,1-1,.61C364.24,49,359.15,49.39,355,49c-4.76-.47-8.7-3.05-13-4.84a20.07,20.07,0,0,0-11.41-1.25c-6.84,1.17-15.21,4.73-18.24,11.3-.76,1.65-3.17.32-2.62-1.3-3.36-2.45-8.07-2.06-11.85-.69-8.38,3-15.8,10.88-25.52,8.56-7.37-1.77-11.09-8.35-13.22-15-1.56,5.06-2.67,10.4-1.32,15.52,1.27,4.82,5,9.8,10.37,10.47,1.4.18,2.11,1.89.75,2.71a40.77,40.77,0,0,0-10,8.79c-2.69,3.22-5.29,7.19-5.79,11.42a1.37,1.37,0,0,1-.19.58,1.17,1.17,0,0,1-1.39,1.06,17.55,17.55,0,0,0-14.37,4.89c-8.21,8.07-3.16,20.32-6.82,30.05a24.33,24.33,0,0,1-10.48,12.2,19.11,19.11,0,0,0,6-3.27,1.57,1.57,0,0,1,2.55,1.4,1.34,1.34,0,0,1,0,.44,36.61,36.61,0,0,0,1.15,21.5,18.66,18.66,0,0,0,4.95,7.41,31.85,31.85,0,0,0,10,5.77,47.3,47.3,0,0,0,24.38,1.8,74.27,74.27,0,0,0,12.77-3.5c4.08-1.49,7.92-3.45,11.93-5.11,7.33-3,16-4.93,23.68-1.93Z" transform="translate(-5 -6)" style="fill:#65d6ad"/><path d="M231.17,397c3.13,13.51,2.83,27.44,4.08,41.16.46,5.13,1,10.77,3.2,15.52,2.43,5.18,7.81,8.25,13.28,9.59,5.92,1.44,12.31,1.58,18.37,1.87,6.69.31,13.4.44,20.09.18a101.84,101.84,0,0,0,19.91-2.57c7.43-1.78,14.15-5.26,18.51-11.57s6.06-13.52,6.91-20.83c.87-7.57,1.52-15.73,7.23-21.51a15.22,15.22,0,0,1,8.82-4.6,12.74,12.74,0,0,1,9.31,2.71c5.42,4.18,7.57,11.08,9.09,17.38,1.59,6.61,2.55,13.41,4.95,19.8a25.37,25.37,0,0,0,13.45,14.85,54.22,54.22,0,0,0,11.32,3.37q6.69,1.4,13.49,2.18a145.26,145.26,0,0,0,26.62.73c7.28-.51,15.12-2,20.9-6.62,6-4.82,8.72-12.21,10.66-19.32,4.59-16.83,4.13-34.18,4.51-51.44a1.31,1.31,0,0,1,.4-1,8.11,8.11,0,0,0-1.46-3.14c-2.78-3.72-7.55-4.9-12-5.17-5.15-.32-10.36-.07-15.51,0l-33,.18c-5.38,0-10.77.1-16.15.09-3.84,0-7.67-.29-11.51-.32a37.83,37.83,0,0,0-11.57,1.24,9.56,9.56,0,0,0-4.38,2.52,17.91,17.91,0,0,0-2.59,4.59c-1.54,3.29-3.46,6-7.09,7.26s-7.56,1-11.23.49-6.64-1.56-8.54-4.71c-.84-1.4-1.42-2.95-2.27-4.35a13.08,13.08,0,0,0-4-4.1c-3.49-2.3-7.67-3.24-11.8-3.72-4.44-.52-8.94-.75-13.4-1.14q-16-1.44-32.18-1.58c-10.8-.09-21.61.22-32.37,1a44.34,44.34,0,0,0-7.17,1,11.72,11.72,0,0,0-5.34,2.44,16.76,16.76,0,0,0-4.62,8,1.9,1.9,0,0,1,.22.37A60.07,60.07,0,0,1,231.17,397Zm142-8.5a1.29,1.29,0,0,1,.45-.77,1.37,1.37,0,0,1,.69-1.22,16.86,16.86,0,0,1,3.08-1.5c6.24-2.44,13.37-3,20-3.41a250.69,250.69,0,0,1,27-.11c9,.4,18.07,1.11,27,2.32,4.74.64,9.65,1.64,13.5,4.6s5.87,7.58,6.52,12.26c.76,5.56-.4,11.11-1.35,16.58-1,5.73-1.47,11.55-2.75,17.24a36.7,36.7,0,0,1-5.83,13.74A24.28,24.28,0,0,1,450,456.72c-4.79,1.72-10,2.19-15,2.44-6.18.3-12.38.29-18.56,0a105.06,105.06,0,0,1-17.17-1.81A22.31,22.31,0,0,1,386.49,450c-3.16-3.8-5.15-8.31-7-12.83a119.83,119.83,0,0,1-5.24-15.87C371.6,410.54,370.76,399.32,373.19,388.45Zm-135.32-1.92c3.56-3,8.62-3.56,13.08-4.27q9-1.42,18.12-2.22a252,252,0,0,1,36.66-.51c9.28.55,21.24,1,25.87,10.4,2.08,4.24,2.35,9.07,2.16,13.69-.22,5.5-.72,11-1.48,16.47-1.42,10.16-4.57,20.55-12,28.12-7,7.09-16.76,9.84-26.53,10.47a118,118,0,0,1-15.28-.17c-4.56-.28-9.14-.46-13.69-.85-8.34-.72-18-2.72-22.25-10.66-2.17-4.07-2.76-8.75-3.27-13.24s-1.2-9.15-1.72-13.73c-1-9.2-1.46-18.44-1.91-27.68a1.26,1.26,0,0,1-.23-.85A6.87,6.87,0,0,1,237.87,386.53Z" transform="translate(-5 -6)" style="fill:#65d6ad"/><path d="M442,583.23a1.19,1.19,0,0,1,1.07-1.36,30.71,30.71,0,0,0,13.4-5.81c3.58-2.74,6.83-6.6,7.11-11.21A1.57,1.57,0,0,1,466,563.7c3.05-.55,6.47-1.77,8.64-3.84a14.38,14.38,0,0,0,2.9-5c.78-2,1.38-4,2-6a128.89,128.89,0,0,0,3-13A126.13,126.13,0,0,0,484.38,509a1.36,1.36,0,0,1,1.65-1.38,11.74,11.74,0,0,0,1.49-3.36,18.2,18.2,0,0,0,.87-5c0-1.83-.4-3.68-.56-5.5q-.27-3.19-.26-6.41a74.53,74.53,0,0,1,1.23-13.17,72.86,72.86,0,0,1,3.51-12.59c.54-1.43,2.27-4.18,1.07-5.63-1-1.25-3,.92-3.44,1.79a1.27,1.27,0,0,1-1.09.72,32.59,32.59,0,0,1-7.43,5.93c-1.56,15-7.34,30.08-17.43,41.57a1.52,1.52,0,0,1-2.34-.29c-.44-.77-.88-1.54-1.33-2.31a31.33,31.33,0,0,1-7.68,20c-.93,1.06-2.41.09-2.54-1a25.52,25.52,0,0,0-.82-4.07,27.28,27.28,0,0,1-4.3,13.28,1.42,1.42,0,0,1-1.15.66,1.53,1.53,0,0,1-2.49-.61c-3.76-12.15-10-24.5-22.84-29.39-12.26-4.66-25.64-2.63-38.25-.72a146.3,146.3,0,0,1-21,2.07,203.76,203.76,0,0,1-21.95-1.46c-13.7-1.4-28-2.88-41.38,1.08-10.28,3-20.14,9.85-24.17,19.9-.42,1.05-2.09,1.58-2.71.35l-.93-1.85a30.36,30.36,0,0,1-.23,4.85,1.5,1.5,0,0,1-2.92.38,75.39,75.39,0,0,0-9.87-17.65,12.81,12.81,0,0,1-.25,2,1.52,1.52,0,0,1-2.48.64,48.51,48.51,0,0,1-7.86-8.47,69.29,69.29,0,0,1-13.17-38.11,34.44,34.44,0,0,1-6.92-5c.35,2.44.63,4.9.82,7.36a130.18,130.18,0,0,1-.28,23.77,107.4,107.4,0,0,1-1.68,11c-.42,1.95-1.07,4.07-.55,6.07.36,1.37,1.68,2.86,3.27,2.44a1.45,1.45,0,0,1,1,.08,1.26,1.26,0,0,1,1.08,1.36,56.78,56.78,0,0,0,1.48,15.8c4.24,18.14,16.52,35.56,34.32,43.12a1.52,1.52,0,0,1,1.28,1c1.39,3.44,2.83,6.86,4.45,10.21,2.84,5.86,6.18,11.74,11.27,16,4.92,4.17,11.59,6.94,18.17,5.81a1.6,1.6,0,0,1,1.84,1.84,16.77,16.77,0,0,0,6.58,4.36c2.65,1,5.81,1.5,8.46.26a1.58,1.58,0,0,1,2.19,1A81.76,81.76,0,0,0,335.55,621a68.43,68.43,0,0,0,18.06,4.39,58.64,58.64,0,0,0,17.87-1.23,67.29,67.29,0,0,0,30.7-15.73,1.21,1.21,0,0,1,1.4-1.4,81.94,81.94,0,0,0,11.07.67,36.31,36.31,0,0,0,9.9-1.34,19.73,19.73,0,0,0,8.09-4.92A31.4,31.4,0,0,0,442,583.34.45.45,0,0,0,442,583.23Zm-24.32-50.8a58.61,58.61,0,0,1-11.57,8.88c-17.55,10.62-38.89,13.37-59.14,11.62a207.47,207.47,0,0,1-33.64-6.09c-9.5-2.43-21-4.7-26.56-13.48a14,14,0,0,1-1.58-12.74,17.25,17.25,0,0,1,8.82-8.76c4.82-2.25,10.24-2.64,15.51-2.65,5.91,0,11.83.17,17.74.26l68.24,1.06a1.4,1.4,0,0,1,.7-.12l7.56.49c1.75.1,3.51.21,5.26.26a26.11,26.11,0,0,1,4.51.2,12,12,0,0,1,8.77,8.77C423.44,524.82,420.92,529.12,417.71,532.43Z" transform="translate(-5 -6)" style="fill:#65d6ad"/><polygon points="308.6 366.83 261.23 366.05 239.14 366.63 227.35 368.29 219.46 372.64 220.45 360.06 254.93 336.24 309.59 337.8 308.6 366.83" style="fill:#65d6ad"/><polygon points="375.46 367.8 422.82 368.95 444.92 367.6 456.71 369.26 464.6 373.61 463.6 359.09 429.13 337.21 374.47 338.76 375.46 367.8" style="fill:#65d6ad"/><g style="clip-path:url(#clip-path)"><rect x="209.56" y="283.6" width="392.21" height="278.73" style="fill:#fff"/><g style="clip-path:url(#clip-path-2)"><polygon points="602.39 570.64 614.12 559.12 617.79 562.71 606 574.17 602.39 570.64" style="fill:#65d6ad"/><polygon points="588.91 570.68 614.12 545.91 617.79 549.5 592.44 574.13 588.91 570.68" style="fill:#65d6ad"/><polygon points="575.45 570.73 614.12 532.7 617.79 536.29 578.87 574.08 575.45 570.73" style="fill:#65d6ad"/><polygon points="561.98 570.78 614.12 519.49 617.79 523.08 565.3 574.03 561.98 570.78" style="fill:#65d6ad"/><polygon points="548.5 570.82 614.12 506.28 617.79 509.87 551.75 573.99 548.5 570.82" style="fill:#65d6ad"/><polygon points="535.02 570.86 614.12 493.07 617.79 496.67 538.19 573.95 535.02 570.86" style="fill:#65d6ad"/><polygon points="521.56 570.92 614.12 479.87 617.79 483.46 524.61 573.9 521.56 570.92" style="fill:#65d6ad"/><polygon points="508.08 570.96 614.12 466.66 617.79 470.25 511.05 573.86 508.08 570.96" style="fill:#65d6ad"/><polygon points="494.61 571 614.12 453.45 617.79 457.04 497.49 573.82 494.61 571" style="fill:#65d6ad"/><polygon points="481.14 571.05 614.12 440.24 617.79 443.83 483.93 573.77 481.14 571.05" style="fill:#65d6ad"/><polygon points="467.67 571.1 614.12 427.03 617.79 430.62 470.36 573.72 467.67 571.1" style="fill:#65d6ad"/><polygon points="454.2 571.14 614.12 413.82 617.79 417.41 456.79 573.67 454.2 571.14" style="fill:#65d6ad"/><polygon points="440.73 571.18 614.12 400.61 617.79 404.2 443.23 573.63 440.73 571.18" style="fill:#65d6ad"/><polygon points="427.25 571.23 614.12 387.4 617.79 390.99 429.67 573.59 427.25 571.23" style="fill:#65d6ad"/><polygon points="413.78 571.27 614.12 374.19 617.79 377.78 416.1 573.54 413.78 571.27" style="fill:#65d6ad"/><polygon points="400.31 571.32 614.12 360.98 617.79 364.57 402.54 573.5 400.31 571.32" style="fill:#65d6ad"/><polygon points="386.83 571.36 614.12 347.77 617.79 351.36 388.98 573.46 386.83 571.36" style="fill:#65d6ad"/><polygon points="373.37 571.41 614.12 334.56 617.79 338.15 375.41 573.41 373.37 571.41" style="fill:#65d6ad"/><polygon points="359.9 571.46 614.12 321.35 617.79 324.94 361.84 573.36 359.9 571.46" style="fill:#65d6ad"/><polygon points="346.42 571.5 614.12 308.14 617.79 311.74 348.28 573.32 346.42 571.5" style="fill:#65d6ad"/><polygon points="332.94 571.54 614.12 294.94 617.79 298.53 334.72 573.28 332.94 571.54" style="fill:#65d6ad"/><polygon points="319.47 571.59 614.12 281.73 617.79 285.32 321.15 573.23 319.47 571.59" style="fill:#65d6ad"/><polygon points="306 571.64 610.85 271.73 614.5 275.31 307.59 573.18 306 571.64" style="fill:#65d6ad"/><polygon points="292.54 571.68 597.36 271.76 600.95 275.27 294.02 573.13 292.54 571.68" style="fill:#65d6ad"/><polygon points="279.06 571.72 583.9 271.82 587.38 275.22 280.46 573.09 279.06 571.72" style="fill:#65d6ad"/><polygon points="265.59 571.77 570.42 271.86 573.82 275.18 266.89 573.04 265.59 571.77" style="fill:#65d6ad"/><polygon points="252.12 571.82 556.96 271.91 560.25 275.13 253.32 573 252.12 571.82" style="fill:#65d6ad"/><polygon points="238.65 571.86 543.48 271.95 546.69 275.09 239.77 572.96 238.65 571.86" style="fill:#65d6ad"/><polygon points="225.17 571.9 530.01 272 533.13 275.04 226.21 572.91 225.17 571.9" style="fill:#65d6ad"/><polygon points="211.7 571.95 516.54 272.04 519.56 274.99 212.64 572.87 211.7 571.95" style="fill:#65d6ad"/><polygon points="198.23 572 503.06 272.08 506 274.95 199.07 572.82 198.23 572" style="fill:#65d6ad"/><polygon points="194.96 562 489.59 272.13 492.44 274.91 195.78 562.81 194.96 562" style="fill:#65d6ad"/><polygon points="194.96 548.79 476.12 272.17 478.87 274.86 195.78 549.6 194.96 548.79" style="fill:#65d6ad"/><polygon points="194.96 535.58 462.65 272.22 465.3 274.81 195.78 536.39 194.96 535.58" style="fill:#65d6ad"/><polygon points="194.96 522.37 449.17 272.26 451.74 274.77 195.78 523.18 194.96 522.37" style="fill:#65d6ad"/><polygon points="194.96 509.17 435.7 272.31 438.18 274.73 195.78 509.97 194.96 509.17" style="fill:#65d6ad"/><polygon points="194.96 495.95 422.24 272.36 424.61 274.68 195.78 496.76 194.96 495.95" style="fill:#65d6ad"/><polygon points="194.96 482.75 408.77 272.41 411.04 274.63 195.78 483.55 194.96 482.75" style="fill:#65d6ad"/><polygon points="194.96 469.54 395.29 272.45 397.48 274.59 195.78 470.34 194.96 469.54" style="fill:#65d6ad"/><polygon points="194.96 456.33 381.81 272.49 383.92 274.55 195.78 457.13 194.96 456.33" style="fill:#65d6ad"/><polygon points="194.96 443.12 368.35 272.54 370.36 274.5 195.78 443.92 194.96 443.12" style="fill:#65d6ad"/><polygon points="194.96 429.91 354.88 272.58 356.79 274.45 195.78 430.71 194.96 429.91" style="fill:#65d6ad"/><polygon points="194.96 416.7 341.4 272.62 343.23 274.41 195.78 417.5 194.96 416.7" style="fill:#65d6ad"/><polygon points="194.96 403.49 327.93 272.67 329.66 274.36 195.78 404.3 194.96 403.49" style="fill:#65d6ad"/><polygon points="194.96 390.28 314.46 272.72 316.09 274.31 195.78 391.09 194.96 390.28" style="fill:#65d6ad"/><polygon points="194.96 377.07 300.99 272.76 302.54 274.27 195.78 377.88 194.96 377.07" style="fill:#65d6ad"/><polygon points="194.96 363.86 287.52 272.81 288.97 274.23 195.78 364.67 194.96 363.86" style="fill:#65d6ad"/><polygon points="194.96 350.65 274.04 272.85 275.41 274.19 195.78 351.46 194.96 350.65" style="fill:#65d6ad"/><polygon points="194.96 337.44 260.57 272.9 261.84 274.14 195.78 338.25 194.96 337.44" style="fill:#65d6ad"/><polygon points="194.96 324.24 247.09 272.94 248.28 274.1 195.78 325.04 194.96 324.24" style="fill:#65d6ad"/><polygon points="194.96 311.03 233.63 272.99 234.71 274.05 195.78 311.83 194.96 311.03" style="fill:#65d6ad"/><polygon points="194.96 297.82 220.15 273.03 221.15 274.01 195.78 298.62 194.96 297.82" style="fill:#65d6ad"/><polygon points="194.96 284.61 206.68 273.07 207.59 273.96 195.78 285.41 194.96 284.61" style="fill:#65d6ad"/></g></g><g id="_Cabello_" data-name="&lt;Cabello&gt;"><path d="M394.67,161.46c3.45-1.44,7.55-1.5,11.22-1.42a36.75,36.75,0,0,1,5.74.49,31.66,31.66,0,0,1,5.85,1.88c4.92,1.92,9.92,3.77,15.29,3.28a26,26,0,0,0,12.9-5c8.35-6.11,12.42-15.78,13-25.92a58.56,58.56,0,0,0-1.34-15.67,46.52,46.52,0,0,0-5.42-14.42c-5.53-9.15-16.53-15.79-27.38-12.44a1.51,1.51,0,0,0,.8,2.9,34.12,34.12,0,0,1,24.08,3,32.06,32.06,0,0,1,16.81,31.34,1.51,1.51,0,0,0,2.79.75,42.27,42.27,0,0,0-19.25-55.1,45.3,45.3,0,0,0-16.65-5l.4,3c12.84-2,25.58,2.39,37.46,6.76a1.51,1.51,0,0,0,1.46-2.51,60.41,60.41,0,0,0-48.13-13.2l1.46.39a.55.55,0,0,1,0-.71c1.27-1.44-.84-3.57-2.12-2.12a3.65,3.65,0,0,0-.55,4.27c1.05,1.8,3.29.84,5,.67a57.49,57.49,0,0,1,31.86,6,55.27,55.27,0,0,1,10.35,6.85L471.79,77c-12.48-4.59-25.6-8.91-39.06-6.76-1.79.28-1.15,2.79.4,2.94A41.94,41.94,0,0,1,458.28,85a39.36,39.36,0,0,1,8.16,43.68l2.8.76a35.11,35.11,0,0,0-7.2-24.54,35.65,35.65,0,0,0-22.31-13.2,37.17,37.17,0,0,0-15.18.54l.8,2.9c9-2.79,18.28,2.43,23.23,9.86,5.3,8,7.37,18.41,7.19,27.85s-3.52,19.1-11.32,25a23.1,23.1,0,0,1-11.86,4.81c-5,.42-9.7-1.4-14.31-3.19a30.94,30.94,0,0,0-6.13-1.93,42.33,42.33,0,0,0-6.26-.55c-3.91-.08-8.35,0-12,1.52-1.76.73-1,3.64.8,2.9Z" transform="translate(-5 -6)" style="fill:#014d40"/><path d="M358.83,41.12c8.85-12.1,24-18.89,38.92-18l-.4-2.94A42.27,42.27,0,0,0,375.7,40.07c-.52,1,.37,2.73,1.69,2.2,8.76-3.49,18.17-6.44,27.71-5.29,7.62.92,16.5,4.81,18.84,12.78a18.64,18.64,0,0,1-1,12.71c-.78,1.75,1.8,3.28,2.59,1.51,3.52-7.9,2.73-17.64-4.22-23.44-7.41-6.18-17.48-7.64-26.79-6.34a77.67,77.67,0,0,0-17.91,5.18l1.7,2.2A39.2,39.2,0,0,1,398.15,23a1.51,1.51,0,0,0-.4-3,48.66,48.66,0,0,0-41.51,19.53c-1.14,1.56,1.46,3.06,2.59,1.51Z" transform="translate(-5 -6)" style="fill:#014d40"/><path d="M302.72,46.58a13.47,13.47,0,0,0-10.47-3.18c-4.36.4-8.26,2.37-12,4.5-4,2.28-8.1,4.87-12.78,5.39a12.45,12.45,0,0,1-10.85-4.43c-3.33-3.71-4.67-8.73-5.77-13.47-.35-1.53-2.44-1.33-2.89,0-2.45,7.19-5.07,15.34-2.57,22.9,1.94,5.9,6.6,10.79,12.94,11.59l-.76-2.8a43.26,43.26,0,0,0-11.13,9.85c-3,3.75-5.6,8-6.18,12.91-.22,1.91,2.78,1.9,3,0,.5-4.24,3.12-8.19,5.79-11.38a40.65,40.65,0,0,1,10-8.79,1.51,1.51,0,0,0-.75-2.79c-5.31-.67-9.06-5.53-10.35-10.41-1.79-6.76.71-13.93,2.87-20.29H248c1.86,8,5.34,17.29,14.17,19.7,9.84,2.68,17.51-5.51,26.07-8.53,4-1.41,9.07-1.72,12.41,1.35,1.42,1.31,3.55-.81,2.12-2.12Z" transform="translate(-5 -6)" style="fill:#014d40"/><path d="M241.65,88.52a20.1,20.1,0,0,0-21.53,14.61c-1.42,5.58-.66,11.37-1.27,17a20.59,20.59,0,0,1-6.1,12.68A21.64,21.64,0,0,1,198.84,139c-1.62.08-2.11,2.55-.39,2.94a23,23,0,0,0,19.68-4.55c1.5-1.21-.64-3.32-2.12-2.12a19.82,19.82,0,0,1-16.77,3.78l-.4,2.95a24.72,24.72,0,0,0,21.5-15.26c3.91-9.82-1.33-22.35,7-30.45a17.62,17.62,0,0,1,14.28-4.81c1.91.24,1.9-2.76,0-3Z" transform="translate(-5 -6)" style="fill:#014d40"/><path d="M215.65,136.41a40.51,40.51,0,0,0,.26,20.34,25.79,25.79,0,0,0,4.38,9.05,26.29,26.29,0,0,0,8.56,6.7c15.92,8.43,34.6,4.79,50.31-2.14,4.43-2,8.68-4,13.44-5.06a24.18,24.18,0,0,1,14,.68c1.8.7,2.58-2.2.8-2.89-7.58-3-16.19-1.18-23.47,1.83-4,1.65-7.81,3.61-11.87,5.1a74.79,74.79,0,0,1-12.72,3.55A47.49,47.49,0,0,1,235,172a33,33,0,0,1-10.16-5.69,18.53,18.53,0,0,1-5.09-7.42,36.43,36.43,0,0,1-1.22-21.64c.47-1.87-2.43-2.67-2.89-.79Z" transform="translate(-5 -6)" style="fill:#014d40"/><path d="M306,174.23A21.33,21.33,0,0,1,311,163.54a27.48,27.48,0,0,1,8.9-6.32,44.35,44.35,0,0,1,23.58-3.61,41.93,41.93,0,0,1,17.1,6.15c1.64,1,3.15-1.56,1.52-2.59A45.3,45.3,0,0,0,330.19,151c-7.42,1.29-15,4.11-20.46,9.53a24.12,24.12,0,0,0-6.65,12.86c-.34,1.89,2.55,2.7,2.89.8Z" transform="translate(-5 -6)" style="fill:#014d40"/><path d="M334.32,152.85c11.7-1.8,23.23-.79,34.8,1.45,5.52,1.07,11.07,2.15,16.52,3.53,3.26.83,6.51,2,8.94,4.4,3.79,3.76,4.71,9.46,4.95,14.56.1,1.92,3.1,1.93,3,0-.25-5.25-1.17-10.82-4.45-15.09a18.54,18.54,0,0,0-9.44-6.14A154.68,154.68,0,0,0,372.85,152a155.87,155.87,0,0,0-18.72-2.88,89.43,89.43,0,0,0-20.61.84c-1.9.3-1.09,3.19.8,2.9Z" transform="translate(-5 -6)" style="fill:#014d40"/><path d="M193.46,338.69c-5-20.94-10.31-44.36.44-64.48A41,41,0,0,1,204,261.8c1.49-1.23-.64-3.34-2.12-2.12-7.77,6.4-12.76,15.54-15.24,25.21-2.82,11-2.3,22.49-.5,33.64,1.14,7.05,2.8,14,4.46,21,.45,1.88,3.34,1.08,2.89-.8Z" transform="translate(-5 -6)" style="fill:#014d40"/><path d="M198.42,265.28c-.77-13.62,7.57-28.65,20.49-33.8,1.78-.71,1-3.61-.79-2.89C206.94,233,199,243.83,196.31,255.38a35.09,35.09,0,0,0-.89,9.9c.11,1.92,3.11,1.94,3,0Z" transform="translate(-5 -6)" style="fill:#014d40"/><path d="M220.27,230.34c4.72-13.17,15.5-24.85,28.52-30.14a38.06,38.06,0,0,1,11.55-2.79c1.92-.15,1.93-3.15,0-3-15.36,1.15-28.95,11.19-37.27,23.77a53.07,53.07,0,0,0-5.7,11.37c-.65,1.82,2.25,2.6,2.9.79Z" transform="translate(-5 -6)" style="fill:#014d40"/><path d="M261,196a73.49,73.49,0,0,1,19.78-12.55,65.81,65.81,0,0,1,22.73-5.82c1.92-.1,1.93-3.11,0-3a69.78,69.78,0,0,0-23.86,6.06,76.09,76.09,0,0,0-20.78,13.19c-1.43,1.3.7,3.41,2.13,2.12Z" transform="translate(-5 -6)" style="fill:#014d40"/><path d="M304,177.4c2.28-3.07,7.15-4.79,10.75-6A109.36,109.36,0,0,1,333.21,167a140.89,140.89,0,0,1,20.19-1.79,70.89,70.89,0,0,1,23.26,3.9c8.74,2.89,17.06,6.87,25.41,10.71,1.74.8,3.27-1.78,1.51-2.59-15.15-7-30.84-14.76-47.88-15a134.35,134.35,0,0,0-21,1.56,117.57,117.57,0,0,0-19.7,4.4c-4.77,1.57-10.47,3.58-13.59,7.78-1.15,1.55,1.45,3.05,2.59,1.51Z" transform="translate(-5 -6)" style="fill:#014d40"/><path d="M402.68,179.7c12.42-.52,25.75,3.85,34.83,12.48a31.64,31.64,0,0,1,6.2,8.07c.9,1.7,3.5.19,2.59-1.52C440,186.94,426.78,179.87,414,177.54a50.61,50.61,0,0,0-11.33-.84c-1.92.08-1.93,3.08,0,3Z" transform="translate(-5 -6)" style="fill:#014d40"/><path d="M444.57,201.17c9.11,2.64,18.3,5.18,27,9.09A72.11,72.11,0,0,1,496,227.9a53.37,53.37,0,0,1,9,14l2.36-1.82A102.13,102.13,0,0,0,467,211.61c-1.48-.57-2.41,1.51-1.46,2.51,6.84,7.24,14.81,15.93,14.11,26.62-.13,1.92,2.87,1.92,3,0,.75-11.52-7.61-20.93-15-28.74l-1.46,2.51a98.85,98.85,0,0,1,39,27.7c1.2,1.4,3-.39,2.35-1.82-4.11-9.44-11.06-17.34-19.16-23.58-8.39-6.45-18-10.71-28-14-5-1.65-10-3-15-4.51a1.5,1.5,0,0,0-.8,2.89Z" transform="translate(-5 -6)" style="fill:#014d40"/><path d="M480.94,242.74c6,1.38,11.49,4.15,15.44,8.93a27.67,27.67,0,0,1,5.73,14.13,41.1,41.1,0,0,1,.12,8.66c-.16,1.93,2.84,1.92,3,0,1-11.45-2.55-23.43-12.5-30.06a33.25,33.25,0,0,0-11-4.55c-1.88-.43-2.68,2.46-.8,2.89Z" transform="translate(-5 -6)" style="fill:#014d40"/><path d="M502.77,276.12c2.64,2.18,5.37,5.17,6.25,8.57.93,3.64-1.13,7.73-3.74,10.16-1.2,1.12.1,2.72,1.46,2.51a19.65,19.65,0,0,0,15.36-12.95l-2.94-.4a89.85,89.85,0,0,1-3.64,18,26.58,26.58,0,0,1-2.74,6.22,6.64,6.64,0,0,1-1.41,1.66,1.4,1.4,0,0,1-1.25.4c-1.92-.14-1.91,2.86,0,3,4.41.33,6.67-5.9,7.83-9.13A88.4,88.4,0,0,0,522.16,284c.19-1.76-2.44-1.91-2.95-.4a16.68,16.68,0,0,1-13.27,10.85L507.4,297c3.3-3.06,5.45-7.91,4.65-12.45-.73-4.12-4-7.94-7.16-10.52-1.48-1.22-3.61.89-2.12,2.12Z" transform="translate(-5 -6)" style="fill:#014d40"/><path d="M504.14,386.17c2.77-5.71,3.85-12.19,4.19-18.49s0-12.88-2-18.88c-.61-1.83-3.51-1.05-2.89.79a48.67,48.67,0,0,1,2,17.72c-.29,5.86-1.22,12-3.81,17.35-.84,1.73,1.75,3.25,2.6,1.51Z" transform="translate(-5 -6)" style="fill:#014d40"/><path d="M505.4,350.33c4.4-5.05,6.24-11.65,6.94-18.19a66.92,66.92,0,0,0-1.19-20.4c-.38-1.89-3.28-1.09-2.89.8a64.29,64.29,0,0,1,1.15,18.87c-.54,5.93-2.14,12.21-6.13,16.8-1.26,1.45.85,3.58,2.12,2.12Z" transform="translate(-5 -6)" style="fill:#014d40"/><path d="M195.13,386.37a41,41,0,0,1-2.45-11.25c-.32-3.54-.61-7.79.92-11.11.81-1.74-1.78-3.26-2.59-1.51-1.74,3.77-1.7,8.23-1.36,12.28a44,44,0,0,0,2.59,12.38c.69,1.78,3.59,1,2.89-.79Z" transform="translate(-5 -6)" style="fill:#014d40"/><path d="M191.68,361.09c-5.41-2-8.81-7.48-11.09-12.46-2.63-5.73-4.26-12-3.59-18.34a24.34,24.34,0,0,1,3.94-11h-2.59c3.36,7.56,7.05,15.6,13.05,21.47,1.38,1.35,3.5-.77,2.12-2.12-5.8-5.67-9.33-13.56-12.58-20.86-.49-1.11-2-.85-2.59,0-4.27,6.43-5.35,14.47-3.85,22a42.9,42.9,0,0,0,8,17.88,19.15,19.15,0,0,0,8.35,6.32c1.82.66,2.61-2.24.8-2.9Z" transform="translate(-5 -6)" style="fill:#014d40"/><path d="M200.67,387.67a13.24,13.24,0,0,1,1.94,5.32,41.26,41.26,0,0,1,.93,7.42,12.64,12.64,0,0,1-1.11,6.13c-1.43,3.11-3.22,6.11-3.94,9.5-1.56,7.32,1.42,14.55,4.89,20.86s7.2,12.63,11.88,18.06c5,5.83,11.6,10.33,19.34,11.35,1.63.22,1.82-2,.76-2.79-11.07-7.82-10.09-23.41-8.52-35.2,1-7.87,2.21-15.75.91-23.67-1.19-7.25-4.1-14-6.05-21.11A44.21,44.21,0,0,1,219.91,373,37.85,37.85,0,0,1,221.39,362c2-7.34,5.33-14.25,7.46-21.57a98.73,98.73,0,0,0,3.83-23.09,95.81,95.81,0,0,0-.17-11.86c-.25-3.3-.71-6.59-.73-9.9a16.89,16.89,0,0,1,1.93-8.89c1.71-2.85,4.66-4.51,7.7-5.62,3.48-1.25,7.11-2.09,10.67-3.06l12.27-3.34,6-1.63a1.51,1.51,0,0,0-.8-2.9c-8.26,2.25-16.54,4.47-24.8,6.76-3.29.91-6.69,1.94-9.51,3.92a14.47,14.47,0,0,0-5.6,7.7c-2,6.64-.18,13.92.07,20.68a95.26,95.26,0,0,1-2.2,24.34c-1.73,7.79-4.78,15.05-7.41,22.56-2.55,7.3-3.92,14.64-2.63,22.35,1.25,7.52,4.35,14.55,6.28,21.9A46.28,46.28,0,0,1,225.37,412a91,91,0,0,1-1,12.33c-1,7.33-2.15,14.69-1.18,22.09.79,6.09,2.87,12.18,7.14,16.73a22.87,22.87,0,0,0,3.51,3l.75-2.8c-14.06-1.86-22.19-16.36-28.41-27.53-3.36-6-6.54-13.2-4.49-20.21,1-3.32,2.89-6.26,4.16-9.46a14.27,14.27,0,0,0,.68-5.7,46.55,46.55,0,0,0-1-8.22,15.46,15.46,0,0,0-2.25-6c-1.15-1.52-3.75,0-2.59,1.52Z" transform="translate(-5 -6)" style="fill:#014d40"/><path d="M268.34,272.63c5.58,2.53,11.8,2.07,17.55.39,1.85-.54,1.07-3.43-.79-2.89-4.91,1.43-10.45,2.09-15.25-.09a1.55,1.55,0,0,0-2.05.54,1.5,1.5,0,0,0,.54,2.05Z" transform="translate(-5 -6)" style="fill:#014d40"/><path d="M292,257.88a32.13,32.13,0,0,0-3.41,38.85,33.49,33.49,0,0,0,7.86,8.46c1.16.89,2.4-.58,2.21-1.7a31.37,31.37,0,0,1,2.25-18.92,26.27,26.27,0,0,1,13.74-12.8c1.76-.72,1-3.62-.79-2.89a29.34,29.34,0,0,0-15.54,14.18,34.89,34.89,0,0,0-2.56,21.23L298,302.6A28.82,28.82,0,0,1,294.13,260c1.29-1.43-.82-3.56-2.12-2.13Z" transform="translate(-5 -6)" style="fill:#014d40"/><path d="M313.69,271.38a112.45,112.45,0,0,0,22,2.7,66.42,66.42,0,0,0,21.72-2.76c1.83-.6,1-3.49-.8-2.89a63.73,63.73,0,0,1-20.92,2.65,108.84,108.84,0,0,1-21.2-2.59c-1.88-.42-2.69,2.48-.8,2.89Z" transform="translate(-5 -6)" style="fill:#014d40"/><path d="M356.88,269.91a57.06,57.06,0,0,1,11,35.94A39.46,39.46,0,0,1,366,316.13a1.51,1.51,0,0,0,2.51,1.46c8.94-9.52,17.52-21.7,16.32-35.42a34,34,0,0,0-3.09-11.23c-.8-1.75-3.39-.23-2.59,1.51a29.55,29.55,0,0,1,.88,22.63c-2.78,7.75-8.06,14.44-13.64,20.38l2.5,1.46c4.13-12.68,1.67-27.14-3.83-39a53,53,0,0,0-5.6-9.5c-1.13-1.54-3.74,0-2.59,1.51Z" transform="translate(-5 -6)" style="fill:#014d40"/><path d="M380.6,272.79c13.85-1.63,28.34-3.34,41.82,1.35a36.2,36.2,0,0,1,15.11,9.62,31.39,31.39,0,0,1,7.27,14.66,32,32,0,0,1-1.65,18.37c-.67,1.66,1.85,2.47,2.74,1.15a65,65,0,0,0,9.6-20,49,49,0,0,0,.63-21.79c-.36-1.89-3.26-1.09-2.89.8a45.58,45.58,0,0,1-.74,20.58,63.14,63.14,0,0,1-9.19,18.9l2.75,1.15a35.11,35.11,0,0,0-4.51-33.64c-8.07-10.67-21.67-15-34.56-15.72-8.82-.5-17.64.54-26.38,1.57-1.9.23-1.92,3.23,0,3Z" transform="translate(-5 -6)" style="fill:#014d40"/><path d="M455.46,278.52c2.63.54,4.82,2.4,6.64,4.28a24.36,24.36,0,0,1,5,7.32c1.41,3.36,1,7.07,1.2,10.61s1.08,6.84,3.55,9.34c1.36,1.38,3.48-.74,2.12-2.12-2.65-2.68-2.7-6.65-2.76-10.18s-.36-7-2-10.23a28.54,28.54,0,0,0-5.61-7.48c-2-2-4.51-3.85-7.34-4.43-1.88-.39-2.69,2.5-.8,2.89Z" transform="translate(-5 -6)" style="fill:#014d40"/><path d="M471.37,309.46c-3.89,14.38-4.48,30.6.29,44.85A46.91,46.91,0,0,0,477,365.47c1.07,1.6,3.67.1,2.59-1.51-8.08-12.08-9.33-27.82-7.66-41.91a82.67,82.67,0,0,1,2.29-11.79,1.5,1.5,0,0,0-2.89-.8Z" transform="translate(-5 -6)" style="fill:#014d40"/><path d="M477.08,364.94a86.12,86.12,0,0,0-3.67,22c-.28,7.51.75,14.83,1.64,22.26,1.66,13.67,2.34,28.16-3.37,41.06-2.63,5.95-6.74,11-12.66,13.86-1.37.67-.65,2.79.76,2.79,14,.05,27.53-10.23,30.5-24.08.4-1.89-2.49-2.69-2.89-.8-2.7,12.57-14.84,21.92-27.61,21.88l.76,2.8c11.11-5.42,15.86-17.52,17.79-29a87.58,87.58,0,0,0,.32-23.1c-.77-7.81-2.21-15.57-2.3-23.44A83.79,83.79,0,0,1,480,365.74c.56-1.85-2.33-2.65-2.89-.8Z" transform="translate(-5 -6)" style="fill:#014d40"/><path d="M486.52,447.39a22.15,22.15,0,0,0,6.77,8c2.51,1.93,5.94,3.89,9.22,2.86a1.51,1.51,0,0,0,.66-2.5c-7.72-7.85-2.73-19.89,0-28.71a45.13,45.13,0,0,0,2.28-15.07,42.1,42.1,0,0,0-12.07-28c-1.35-1.37-3.48.75-2.12,2.12a39.2,39.2,0,0,1,11.21,26.25,45.69,45.69,0,0,1-2.61,15.22c-1.67,5.21-3.58,10.44-3.76,16-.17,5.22,1.2,10.54,4.94,14.34l.66-2.51c-2.48.78-5.29-1.24-7.09-2.73a19.31,19.31,0,0,1-5.51-6.73c-.79-1.75-3.37-.23-2.59,1.52Z" transform="translate(-5 -6)" style="fill:#014d40"/><path d="M356.48,39.06c-3.12,2.24-7.65,2.5-11.35,2.14-4.74-.47-8.85-3.52-13.24-5.14-7.56-2.78-16.27-.71-23.1,3.13-3.6,2-7.13,4.86-8.89,8.68-.8,1.75,1.78,3.27,2.59,1.52,1.47-3.2,4.27-5.52,7.25-7.28a32.25,32.25,0,0,1,11.12-4,20.12,20.12,0,0,1,11.44,1.35c4.25,1.78,8.15,4.31,12.83,4.77,4.17.41,9.35,0,12.87-2.55,1.55-1.11.06-3.71-1.52-2.59Z" transform="translate(-5 -6)" style="fill:#014d40"/></g><g id="_Oreja_Derecha_" data-name="&lt;Oreja Derecha&gt;"><path d="M201.6,385.08c-7.48-1.24-14.43,2.74-18.77,8.67-5,6.88-5.43,15.9-4.44,24.06a140.93,140.93,0,0,0,5.77,26.33,71,71,0,0,0,11.34,22.15A47,47,0,0,0,216,481.62c1.82.67,2.6-2.23.8-2.9-14-5.16-23.3-18-28.36-31.52A136.84,136.84,0,0,1,182.2,423c-1.39-7.76-2.42-16.55,1-24,3-6.58,10-12.37,17.63-11.11,1.89.32,2.7-2.57.8-2.89Z" transform="translate(-5 -6)" style="fill:#014d40"/></g><g id="_Oreja_Izquierda_" data-name="&lt;Oreja Izquierda&gt;"><path d="M497.67,389.25c2.6-1.31,6.2-.62,8.81.28,3.51,1.22,5.44,4,6.64,7.44,2.48,7.12,2.88,15.25,2.49,22.71a80.48,80.48,0,0,1-14.72,41.9,76.76,76.76,0,0,1-18,18.1c-1.56,1.11-.06,3.71,1.51,2.59a82.85,82.85,0,0,0,34.17-61.85,75.47,75.47,0,0,0-.22-12.12,50.74,50.74,0,0,0-2.48-12.51,17.92,17.92,0,0,0-3.66-6.25,12.13,12.13,0,0,0-4.78-2.85c-3.48-1.24-7.87-1.74-11.28,0-1.72.87-.2,3.46,1.52,2.59Z" transform="translate(-5 -6)" style="fill:#014d40"/></g><g id="_Nariz_" data-name="&lt;Nariz&gt;"><path d="M315.74,473c-1.21,3.85-2.48,8.22-.87,12.14,1.25,3.05,4.21,5.74,7.68,5.57s6.34-3.74,10-2.71c3.36.92,5.91,3.74,8.9,5.39a17.25,17.25,0,0,0,10.8,1.9,16.88,16.88,0,0,0,5.19-1.63,55.08,55.08,0,0,0,4.63-3c1.48-.95,3-1.64,4.77-1.07s3.24,1.64,5.07,2a12.55,12.55,0,0,0,9.33-1.9c6.56-4.47,6.25-14.08,0-18.7-1.55-1.16-3.05,1.45-1.52,2.59a8.45,8.45,0,0,1-.75,14,9.27,9.27,0,0,1-7.92.7c-1.55-.61-2.94-1.55-4.62-1.79a7.67,7.67,0,0,0-4.46.8c-2.91,1.39-5.09,3.79-8.26,4.71a14.38,14.38,0,0,1-9.74-.58c-2.87-1.28-5.15-3.55-7.88-5.06a9.43,9.43,0,0,0-8.66-.66c-1.65.73-3.27,2.06-5.13,2.1a4.92,4.92,0,0,1-3.91-2.21c-2.53-3.44-1-8,.16-11.7.58-1.85-2.31-2.64-2.89-.8Z" transform="translate(-5 -6)" style="fill:#014d40"/></g><g id="_Barba_" data-name="&lt;Barba&gt;"><path d="M219.14,510.32c-.95,19.81,8.51,40.29,23.63,53A55.58,55.58,0,0,0,256.94,572a1.51,1.51,0,0,0,1.85-1,1.55,1.55,0,0,0-1.05-1.85c-17.61-7.4-30-25-34.19-43.32a56.71,56.71,0,0,1-1.41-15.48c.09-1.93-2.91-1.92-3,0Z" transform="translate(-5 -6)" style="fill:#014d40"/><path d="M256.33,571c5.24,12.94,11.45,27.61,25.5,32.93a23,23,0,0,0,12.06,1.19c1.9-.32,1.09-3.21-.8-2.89-8.47,1.44-16.8-3.41-22.06-9.74s-8.69-14.58-11.81-22.29c-.72-1.76-3.62-1-2.89.8Z" transform="translate(-5 -6)" style="fill:#014d40"/><path d="M291.68,604.76c4.27,5.64,12.95,9.7,19.8,6.5a1.51,1.51,0,0,0,.54-2,1.53,1.53,0,0,0-2-.54c-2.65,1.24-5.81.71-8.44-.26a16.37,16.37,0,0,1-7.26-5.16,1.56,1.56,0,0,0-2.06-.54,1.5,1.5,0,0,0-.53,2Z" transform="translate(-5 -6)" style="fill:#014d40"/><path d="M310.09,611.88a79.1,79.1,0,0,0,35.37,14.29c12.38,1.58,25.14-1.07,36.34-6.43a69.05,69.05,0,0,0,17.47-12c1.4-1.33-.72-3.44-2.12-2.12A67.17,67.17,0,0,1,365.5,622.2a58.73,58.73,0,0,1-18,1.2,68.43,68.43,0,0,1-17.76-4.32,81.77,81.77,0,0,1-18.15-9.79c-1.58-1.12-3.08,1.48-1.52,2.59Z" transform="translate(-5 -6)" style="fill:#014d40"/><path d="M397.64,608.05c6.91.83,14.2,1.26,21-.55,7-1.87,12.43-7.19,16-13.31a33.38,33.38,0,0,0,4.27-12c.28-1.88-2.61-2.7-2.89-.79a31.48,31.48,0,0,1-9.56,18.27,19.49,19.49,0,0,1-8,4.74,36.37,36.37,0,0,1-9.85,1.31,81.35,81.35,0,0,1-11-.67c-1.91-.22-1.9,2.78,0,3Z" transform="translate(-5 -6)" style="fill:#014d40"/><path d="M438,582.78A33.22,33.22,0,0,0,452.9,576c4.1-3.24,7.43-7.74,7.75-13.1.12-1.93-2.88-1.93-3,0-.27,4.59-3.53,8.44-7,11.12a30.8,30.8,0,0,1-13.46,5.85c-1.9.32-1.09,3.21.8,2.89Z" transform="translate(-5 -6)" style="fill:#014d40"/><path d="M459.46,564.83a23.78,23.78,0,0,0,9.51-3.39c3.37-2.17,5-5.94,6.23-9.62A121.59,121.59,0,0,0,481,523.69a128.1,128.1,0,0,0,.43-16.62c-.07-1.93-3.07-1.94-3,0a125.44,125.44,0,0,1-4.82,39.8,61.38,61.38,0,0,1-2.06,6.23,14,14,0,0,1-2.83,4.79c-2.3,2.2-6.14,3.52-9.25,3.94a1.54,1.54,0,0,0-1.5,1.5,1.52,1.52,0,0,0,1.5,1.5Z" transform="translate(-5 -6)" style="fill:#014d40"/><path d="M481.59,508.51c2.48-2.42,3.4-6.5,3.75-9.81a27.08,27.08,0,0,0-.37-5.82,70.45,70.45,0,0,1-.36-7.69,71.28,71.28,0,0,1,1.79-15.34,72.46,72.46,0,0,1,2.21-7.64c.79-2.25,2.26-4.69,2.18-7.13-.08-2.21-1.72-4.42-4.09-4.35a6.8,6.8,0,0,0-5.28,3.63c-.92,1.7,1.67,3.22,2.59,1.51.46-.86,2.26-2.86,3.32-1.89,1.37,1.26-.41,4.21-.91,5.52a71.26,71.26,0,0,0-3.55,12.66,73.94,73.94,0,0,0-1.26,13c0,2.19.07,4.38.26,6.56.15,1.83.57,3.68.56,5.51a17.84,17.84,0,0,1-.82,4.91,9.63,9.63,0,0,1-2.14,4.22c-1.39,1.35.74,3.47,2.12,2.12Z" transform="translate(-5 -6)" style="fill:#014d40"/><path d="M214.74,453.84a116.1,116.1,0,0,1,1.95,24.9,126.2,126.2,0,0,1-.88,12.73c-.25,2-.55,4-.92,6s-.94,4-1.17,6.11a8,8,0,0,0,1.67,6.36,5.45,5.45,0,0,0,5.47,1.79c1.87-.48,1.08-3.37-.8-2.89-1.63.42-3-1.16-3.31-2.62-.41-1.94.21-4,.61-5.85a105.47,105.47,0,0,0,1.7-11.18,131.27,131.27,0,0,0,.27-23.54,109.42,109.42,0,0,0-1.7-12.61c-.38-1.89-3.27-1.09-2.89.8Z" transform="translate(-5 -6)" style="fill:#014d40"/><path d="M225.36,462.29a69.34,69.34,0,0,0,13.27,39.23,49.06,49.06,0,0,0,7.79,8.37,1.52,1.52,0,0,0,2.51-.66,11.91,11.91,0,0,0-1.47-8.78l-2.35,1.82A75.71,75.71,0,0,1,259,524.87a1.51,1.51,0,0,0,3-.4,31.8,31.8,0,0,0-2.47-16.81l-2.59,1.51,6.19,12.32c.64,1.28,2.31.73,2.74-.35,4.13-10.29,14.28-17,24.62-20,13.46-3.84,27.69-2.29,41.4-.9a200.12,200.12,0,0,0,21.46,1.41,143.23,143.23,0,0,0,20.76-2c12.52-1.9,25.75-4,38,.5a31.88,31.88,0,0,1,15.13,11.75,62.87,62.87,0,0,1,8.17,17.79c.57,1.83,3.47,1.05,2.9-.8-3.53-11.39-9.1-23-19.89-29.11-11.59-6.55-25.5-5.82-38.22-4.05-7.24,1-14.43,2.35-21.73,2.79a141.82,141.82,0,0,1-22.19-.81c-14.4-1.39-29.1-3.44-43.42-.23-12.65,2.83-24.9,10.47-29.88,22.89l2.74-.36-6.19-12.32c-.88-1.76-3.34-.22-2.59,1.51a29,29,0,0,1,2.06,15.3l2.95-.4a80,80,0,0,0-14.69-23.92c-1.14-1.28-3.24.37-2.36,1.81a8.84,8.84,0,0,1,1.17,6.48l2.5-.67c-10.22-8.55-16.34-21.64-18.95-34.51a60.42,60.42,0,0,1-1.23-11c0-1.93-3-1.93-3,0Z" transform="translate(-5 -6)" style="fill:#014d40"/><path d="M439.05,529.62c4.33-6.6,5.86-16.15,2.56-23.47L439,507.67a26.28,26.28,0,0,1,5.12,12.72c.13,1.16,1.62,2.14,2.56,1.06a31.24,31.24,0,0,0,7-27L451,495.57l4.73,8.23a1.51,1.51,0,0,0,2.35.3c10.16-11.56,16-26.89,17.5-42.11.19-1.92-2.81-1.9-3,0-1.41,14.38-7,29.07-16.62,40l2.36.3-4.73-8.23a1.51,1.51,0,0,0-2.75,1.16,28,28,0,0,1-6.23,24.12l2.56,1.06a29.18,29.18,0,0,0-5.53-14.24,1.5,1.5,0,0,0-2.59,1.52c2.85,6.32,1.13,14.82-2.56,20.43-1.07,1.62,1.53,3.13,2.59,1.52Z" transform="translate(-5 -6)" style="fill:#014d40"/><path d="M393,508.6l-71.71-1.11c-5.8-.09-11.62-.25-17.43-.26-5.23,0-10.61.35-15.45,2.52a17.33,17.33,0,0,0-9.1,8.87c-1.78,4.33-.82,9.2,1.69,13,5.72,8.71,17.1,10.92,26.5,13.32a207.79,207.79,0,0,0,33.92,6.1c20.19,1.71,41.46-1.07,59-11.78a56.65,56.65,0,0,0,11.57-9c3.22-3.38,5.71-7.88,4.3-12.64-1.18-4-4.66-7.59-8.82-8.33a31.57,31.57,0,0,0-4.46-.18c-1.71-.05-3.43-.15-5.14-.26-2.52-.15-5-.32-7.56-.49-1.93-.12-1.92,2.88,0,3,4.07.27,8.14.59,12.22.73,1.27.05,2.59-.07,3.85.05a8,8,0,0,1,4.91,2.66c7.34,7.87-3.95,16.27-10,20.3-15.85,10.6-35.37,14.07-54.16,13.28a175.8,175.8,0,0,1-31.86-4.66c-5.06-1.16-10.11-2.45-15.11-3.88-4.59-1.31-9.37-2.88-13.12-5.95-3.27-2.67-5.87-6.7-5.69-11.05.17-4.09,3.07-7.43,6.44-9.46,4.12-2.49,9-3.07,13.76-3.19,5.4-.12,10.82.1,16.22.18l67,1,8.25.13c1.93,0,1.93-3,0-3Z" transform="translate(-5 -6)" style="fill:#014d40"/></g><g id="_Lentes_" data-name="&lt;Lentes&gt;"><path d="M223.86,387a16.4,16.4,0,0,1,5.1-9.64,12.51,12.51,0,0,1,5.58-2.36,46.72,46.72,0,0,1,7.17-.92q16.06-1.15,32.17-1t32.44,1.61c4.42.4,8.88.6,13.29,1.15,4,.5,8.14,1.46,11.55,3.78a12.93,12.93,0,0,1,4,4.24c.79,1.37,1.35,2.86,2.18,4.2,2,3.17,5.14,4.13,8.65,4.63,3.66.52,7.67.68,11.21-.56s5.47-4.06,7-7.38a16.75,16.75,0,0,1,2.62-4.55,9.73,9.73,0,0,1,4.27-2.39,37.55,37.55,0,0,1,11.57-1.24c3.83,0,7.67.33,11.5.33,5.47,0,10.94-.06,16.41-.09l32.7-.19c5.23,0,10.52-.29,15.74.06,4.37.28,9,1.46,11.78,5.13a7.56,7.56,0,0,1,1.6,5.17c-.13,1.93,2.88,1.92,3,0,.29-4.23-2.32-7.95-5.71-10.24-4-2.71-9.14-3.13-13.85-3.17-11.22-.12-22.46.11-33.69.17l-17.1.1c-4.89,0-9.78.15-14.67,0-4.13-.15-8.27-.38-12.41-.13-3.81.22-7.86.78-11.2,2.77s-4.41,5.62-6.17,8.85a8,8,0,0,1-3.56,3.68,14.19,14.19,0,0,1-5.22,1.06,28.82,28.82,0,0,1-5.87-.37c-1.67-.28-3.56-.56-4.88-1.71a12.18,12.18,0,0,1-2.47-4,17.71,17.71,0,0,0-3-4.54c-6.23-6.48-15.95-6.68-24.31-7.32-10.9-.82-21.76-1.75-32.71-2q-16.72-.36-33.46.69c-5,.31-10.29.47-15,2.39-3.67,1.49-6.12,4.8-7.7,8.34a19,19,0,0,0-1.57,5.42c-.24,1.91,2.76,1.89,3,0Z" transform="translate(-5 -6)" style="fill:#014d40"/><path d="M221.48,386.66c5.36,13.12,5.42,27.81,6.26,41.74.37,6.22.74,12.55,2.14,18.65,1.18,5.14,3.35,9.51,7.63,12.75,5.28,4,11.81,5,18.23,5.59,6.61.63,13.27.91,19.91,1a138.8,138.8,0,0,0,18.24-.67c7.68-.91,15.57-2,22.54-5.51,6.74-3.45,11.51-9.33,14.4-16.24a49.33,49.33,0,0,0,3-10.64c.7-4.12.91-8.3,1.64-12.41.68-3.83,1.8-7.68,4.29-10.74,2.1-2.6,5.12-4.79,8.54-5,7.21-.54,11.49,6.87,13.37,12.79,4,12.75,3.8,28.84,15.15,37.92,6.33,5.07,14.58,6.79,22.37,8.19a157.69,157.69,0,0,0,27.42,2.46c7.82,0,16-.27,23.44-2.94a28.3,28.3,0,0,0,16.14-14.31c3.6-7.2,5.45-15.43,6.65-23.34a198.93,198.93,0,0,0,1.82-26.61c.07-4.47.11-8.94.2-13.41,0-1.93-3-1.93-3,0-.38,17.54.07,35.14-4.72,52.2-2,7-4.8,14.22-10.75,18.78s-13.56,5.88-20.78,6.37a146.7,146.7,0,0,1-26.42-.74c-4.53-.52-9-1.26-13.49-2.18A55.08,55.08,0,0,1,384.61,457,25.33,25.33,0,0,1,371,442.23c-2.43-6.44-3.39-13.31-5-20-1.55-6.43-3.79-13.34-9.29-17.49-5.78-4.37-13.23-2.82-18.06,2.18-5.66,5.86-6.25,14.11-7.15,21.79-.86,7.28-2.74,14.58-7,20.65-4.44,6.29-11.23,9.64-18.55,11.38a103.06,103.06,0,0,1-19.71,2.52c-6.63.25-13.28.13-19.91-.18-5.94-.27-12.13-.43-17.95-1.73-5.5-1.24-11-4.12-13.67-9.3-2.38-4.61-2.88-10.37-3.36-15.44-1.3-13.81-1-27.84-4.07-41.44a60.71,60.71,0,0,0-2.9-9.33c-.72-1.77-3.63-1-2.89.79Z" transform="translate(-5 -6)" style="fill:#014d40"/><path d="M231.62,389.67c.47,9.65.88,19.3,2,28.9.53,4.55,1.18,9.09,1.72,13.65s1.15,9.24,3.44,13.25c4.53,7.94,14.39,9.7,22.72,10.36,4.55.36,9.12.56,13.67.83a112.94,112.94,0,0,0,15.17.1c9.74-.71,19.48-3.57,26.37-10.84,7.35-7.75,10.38-18.26,11.74-28.6a156.59,156.59,0,0,0,1.4-16.46c.13-4.57-.26-9.38-2.49-13.46-5.05-9.25-17.16-9.38-26.35-9.9a251.56,251.56,0,0,0-36.21.58q-8.91.78-17.77,2.2c-4.46.71-9.58,1.21-13.15,4.3a6.94,6.94,0,0,0-2.44,5c-.11,1.93,2.89,1.92,3,0,.19-3.71,5.37-5,8.28-5.53,5.54-1.07,11.16-1.82,16.76-2.43a252.32,252.32,0,0,1,34-1.42c5.42.14,10.88.37,16.28,1,4.26.47,8.95,1.4,12.28,4.31s4.51,7.27,4.77,11.55a95.21,95.21,0,0,1-.69,14.22c-.92,10.11-2.7,20.5-8.62,29-5.42,7.76-13.83,11.75-23,13.09s-18.37.33-27.52-.16c-7.67-.4-17.12-.49-23.1-6.08-3.13-2.93-4.31-7-5-11.1-.74-4.31-1.1-8.69-1.69-13-1.14-8.48-1.72-17-2.16-25.57q-.19-3.86-.38-7.72c-.09-1.92-3.09-1.93-3,0Z" transform="translate(-5 -6)" style="fill:#014d40"/><path d="M369.21,386.5c-2.45,11-1.56,22.4,1.2,33.28a121.45,121.45,0,0,0,5.38,16.05c1.82,4.46,3.84,8.91,7,12.59a22.57,22.57,0,0,0,12.88,7.11,111.94,111.94,0,0,0,17.25,1.75q9,.42,18.07,0c5.08-.25,10.29-.72,15.1-2.47a24.22,24.22,0,0,0,11.56-8.65,36.76,36.76,0,0,0,5.77-13.7c1.29-5.76,1.77-11.66,2.78-17.46,1-5.54,2.09-11.15,1.24-16.77a18.15,18.15,0,0,0-6.79-12.08c-3.95-2.93-9-3.81-13.74-4.44-8.91-1.18-17.9-1.88-26.88-2.26a247.55,247.55,0,0,0-26.83.14c-6.58.44-13.64,1-19.84,3.42a18,18,0,0,0-3,1.48c-1.63,1-.13,3.63,1.51,2.59a21.21,21.21,0,0,1,6.22-2.41,69.14,69.14,0,0,1,9.26-1.57,196,196,0,0,1,24.23-.9q13,.21,26,1.45c4.25.41,8.55.79,12.75,1.6,4.46.86,9,2.49,11.6,6.43s3.13,8.93,2.76,13.62c-.45,5.6-1.74,11.15-2.51,16.71-1.29,9.48-2.94,20.36-11,26.7-3.79,3-8.6,4.32-13.3,5a116,116,0,0,1-15.92.81q-8.55,0-17.08-.76c-5-.45-10.31-.86-14.8-3.25-4.12-2.18-6.87-6-9-10a98,98,0,0,1-5.63-14c-3.36-10.13-5.42-20.82-4.56-31.52a56.22,56.22,0,0,1,1.16-7.63c.42-1.88-2.47-2.69-2.89-.8Z" transform="translate(-5 -6)" style="fill:#014d40"/></g><g id="_Ceja_Izquierda_" data-name="&lt;Ceja Izquierda&gt;"><path d="M378.88,343.38c.59,3.8-1.09,10.24,2.42,11.78s7.56.37,11.24-.71c13.55-4,27.87-6.42,41.85-4.33s27.65,9.21,35.06,21c-.09-12-8-23.07-18.57-29.16s-23.31-7.71-35.52-6.71-24.05,4.44-35.79,7.86" transform="translate(-5 -6)" style="fill:#014d40"/></g><g id="_Camisa_" data-name="&lt;Camisa&gt;"><g id="_" data-name="&lt;&gt;"><path d="M279.35,602.79c-1.72,11.11,4.67,23.05,13,30.11,10.15,8.61,24.27,11.21,37,13.39,26.08,4.48,55.46,6,77.54-11.17,10-7.75,17.45-18.78,18.77-31.54.2-1.92-2.8-1.91-3,0-1.1,10.61-7.06,20-14.93,27-8.71,7.71-19.55,12.32-30.93,14.37-13.5,2.43-27.43,1.45-40.91-.58-12.57-1.9-26.05-3.91-37.12-10.54a35.28,35.28,0,0,1-12.59-13.25c-2.81-5-4.82-11.12-3.92-16.95.29-1.89-2.6-2.71-2.89-.8Z" transform="translate(-5 -6)" style="fill:#014d40"/></g><path d="M273.44,596.11a420.62,420.62,0,0,0-42.09,7.54c-13.81,3.13-27.57,6.66-41.13,10.76A92.22,92.22,0,0,0,171.36,622a47.61,47.61,0,0,0-14.44,12.54c-7,9.2-10.81,20.39-12,31.81-1.23,11.82-.94,23.72-1.6,35.57-.1,1.93,2.9,1.93,3,0,.57-10.27.45-20.56,1.19-30.83a76.19,76.19,0,0,1,1.91-13.78A62,62,0,0,1,156.75,640a44.45,44.45,0,0,1,12.91-13.46,72.17,72.17,0,0,1,17.69-8.12c13.05-4.27,26.49-7.61,39.85-10.76a425,425,0,0,1,46.24-8.58c1.9-.23,1.92-3.23,0-3Z" transform="translate(-5 -6)" style="fill:#014d40"/><path d="M430.65,599.15a476.47,476.47,0,0,1,76,15.53c10.74,3.13,21.79,7,29.94,15,7.65,7.51,12.36,17.74,14.69,28.1,2.58,11.54,2.87,23.53,3.52,35.29.11,1.92,3.11,1.93,3,0-.6-10.89-1-21.87-2.94-32.63s-6.12-21.23-13.14-29.62c-7.49-8.95-18.06-13.88-29-17.37-12.41-4-25.16-7.11-37.9-9.85q-21.92-4.72-44.21-7.41c-1.92-.23-1.9,2.77,0,3Z" transform="translate(-5 -6)" style="fill:#014d40"/></g><g id="_Ojo_Izquierdo_" data-name="&lt;Ojo Izquierdo&gt;"><path d="M244.22,413.06A50.37,50.37,0,0,0,271,430.73a33.9,33.9,0,0,0,14.07.51,51.43,51.43,0,0,0,13.89-4.7,46.76,46.76,0,0,0,13.67-9.93c1.31-1.42-.8-3.55-2.12-2.13-6.31,6.83-15.25,11.44-24.27,13.47-9.46,2.13-18.82-.48-27-5.49a49.09,49.09,0,0,1-13-11.53c-1.19-1.52-3.3.62-2.12,2.13Z" transform="translate(-5 -6)" style="fill:#014d40"/><path d="M246.56,411.64c2.69-9.63,12.23-13.72,21.31-15.25,1.9-.32,1.09-3.21-.8-2.89-10.16,1.71-20.43,6.69-23.4,17.34a1.5,1.5,0,0,0,2.89.8Z" transform="translate(-5 -6)" style="fill:#014d40"/><path d="M298.66,397.57a4.76,4.76,0,0,1,.67.43l-.06-.05.21.17.43.37c.6.53,1.16,1.09,1.71,1.67a48,48,0,0,1,3.76,4.55,44.24,44.24,0,0,1,3.37,5.29,18.7,18.7,0,0,1,1,2.24,10.56,10.56,0,0,1,.34,1.09c.05.19.09.39.13.58s0-.12,0,.28c.15,1.91,3.15,1.93,3,0a14.08,14.08,0,0,0-1.76-5.34,42,42,0,0,0-3.56-5.66,54.85,54.85,0,0,0-4.23-5.15,15.56,15.56,0,0,0-3.56-3.07c-1.69-.93-3.21,1.66-1.52,2.6Z" transform="translate(-5 -6)" style="fill:#014d40"/><path d="M308.57,395.58A89.69,89.69,0,0,0,287.24,392a78.31,78.31,0,0,0-23.45,1.88,38.89,38.89,0,0,0-10.87,4.44c-1.63,1-.13,3.62,1.52,2.59,5.93-3.67,13.05-5.14,19.92-5.74A93.86,93.86,0,0,1,297,396a78.08,78.08,0,0,1,10.82,2.45c1.85.57,2.64-2.33.8-2.9Z" transform="translate(-5 -6)" style="fill:#014d40"/></g><g id="_Pupila_Izquierda_" data-name="&lt;Pupila Izquierda&gt;"><path d="M293.3,408.83a12.24,12.24,0,0,1-12.38,12.1c-6.84,0-13.37-5.42-13.37-12.1s6.53-12.09,13.37-12.09A12.23,12.23,0,0,1,293.3,408.83Z" transform="translate(-5 -6)" style="fill:#65d6ad;stroke:#014d40;stroke-miterlimit:10;stroke-width:2px"/><path d="M288.35,408.83c0,4-4.32,7.26-8.42,7.26s-6.44-3.25-6.44-7.26a7.43,7.43,0,0,1,14.86,0Z" transform="translate(-5 -6)" style="fill:#014d40"/></g><g id="_Boca_" data-name="&lt;Boca&gt;"><path d="M290.46,519a188.8,188.8,0,0,0,88.6,5.22A183.86,183.86,0,0,0,403.74,518c1.83-.59,1.05-3.49-.79-2.89a185.62,185.62,0,0,1-87.35,6.73,183,183,0,0,1-24.34-5.72c-1.85-.57-2.64,2.33-.8,2.9Z" transform="translate(-5 -6)" style="fill:#014d40"/><path d="M306,522.09c12.45-4.21,27.15-6.1,39.55-.68,1.75.76,3.28-1.82,1.51-2.59-13.18-5.77-28.55-4.12-41.86.38-1.82.62-1,3.51.8,2.89Z" transform="translate(-5 -6)" style="fill:#014d40"/><path d="M347.78,521.27a27.69,27.69,0,0,1,7.46-1.76,83.12,83.12,0,0,1,10.7-.58,80.49,80.49,0,0,1,21.58,2.61,1.5,1.5,0,0,0,.8-2.89,78.43,78.43,0,0,0-17.44-2.58,85.75,85.75,0,0,0-17.54.71,27.91,27.91,0,0,0-7.07,1.9c-1.77.77-.24,3.36,1.51,2.59Z" transform="translate(-5 -6)" style="fill:#014d40"/><path d="M304.52,523.84A58,58,0,0,0,338,543.06c12.62,2.42,25.68.91,36.81-5.77a41.84,41.84,0,0,0,14.7-14.68,1.5,1.5,0,0,0-2.59-1.51c-6,10.27-16.75,16.89-28.24,19.23-11.94,2.43-25.07,0-35.81-5.63a53.26,53.26,0,0,1-16.21-13c-1.25-1.48-3.36.65-2.12,2.12Z" transform="translate(-5 -6)" style="fill:#014d40"/></g><g id="_Ojo_Derecho_" data-name="&lt;Ojo Derecho&gt;"><path d="M451.46,410.93a47.8,47.8,0,0,1-25.11,16.81c-8.92,2.3-17.91.23-26-3.79a44.14,44.14,0,0,1-13.06-9.47c-1.32-1.42-3.43.71-2.12,2.13,6.7,7.25,16.32,12.23,25.92,14.31a34.12,34.12,0,0,0,13.8.23A46,46,0,0,0,440,425.06a51.71,51.71,0,0,0,13.57-12c1.18-1.51-.93-3.65-2.12-2.13Z" transform="translate(-5 -6)" style="fill:#014d40"/><path d="M454.13,410.84c-3-10.65-13.24-15.63-23.4-17.34-1.89-.32-2.7,2.57-.8,2.89,9.08,1.53,18.62,5.62,21.31,15.25a1.5,1.5,0,0,0,2.89-.8Z" transform="translate(-5 -6)" style="fill:#014d40"/><path d="M397.62,395a15.35,15.35,0,0,0-3.56,3.07,54.85,54.85,0,0,0-4.23,5.15,41.06,41.06,0,0,0-3.56,5.66,14.08,14.08,0,0,0-1.76,5.34c-.15,1.92,2.85,1.91,3,0,0-.4,0,0,0-.28s.07-.34.11-.51a12,12,0,0,1,.36-1.16,19.34,19.34,0,0,1,1-2.24,43.09,43.09,0,0,1,3.38-5.29,48,48,0,0,1,3.76-4.55c.54-.58,1.11-1.14,1.7-1.67l.44-.37c.08-.07.32-.25.1-.09a6.12,6.12,0,0,1,.71-.46c1.7-.94.18-3.53-1.51-2.6Z" transform="translate(-5 -6)" style="fill:#014d40"/><path d="M390,398.48A85.58,85.58,0,0,1,410.38,395a76.25,76.25,0,0,1,22.5,1.69,36,36,0,0,1,10.48,4.21c1.65,1,3.15-1.57,1.51-2.59-6.23-3.87-13.68-5.42-20.9-6.1a96.06,96.06,0,0,0-23.59.85,78.45,78.45,0,0,0-11.15,2.49c-1.84.57-1.06,3.47.8,2.9Z" transform="translate(-5 -6)" style="fill:#014d40"/></g><g id="_Pupila_Derecha_" data-name="&lt;Pupila Derecha&gt;"><path d="M404.5,408.83a12.24,12.24,0,0,0,12.38,12.1c6.84,0,13.37-5.42,13.37-12.1s-6.53-12.09-13.37-12.09A12.23,12.23,0,0,0,404.5,408.83Z" transform="translate(-5 -6)" style="fill:#65d6ad;stroke:#014d40;stroke-miterlimit:10;stroke-width:2px"/><path d="M409.45,408.83c0,4,4.32,7.26,8.42,7.26s6.44-3.25,6.44-7.26a7.43,7.43,0,0,0-14.86,0Z" transform="translate(-5 -6)" style="fill:#014d40"/></g><g id="_Ceja_Derecha_" data-name="&lt;Ceja Derecha&gt;"><path d="M315.29,343.38c-.59,3.8,1.09,10.24-2.42,11.78s-7.56.37-11.24-.71c-13.55-4-27.87-6.42-41.85-4.33s-27.65,9.21-35.06,21c.09-12,8-23.07,18.57-29.16s23.31-7.71,35.52-6.71,24.05,4.44,35.79,7.86" transform="translate(-5 -6)" style="fill:#014d40"/></g></g></svg>