<svg width="100" height="100" viewBox="0 0 128 129" fill="none" xmlns="http://www.w3.org/2000/svg">
<path d="M18.8138 114.884L8.75977 2.11328H119.24L109.176 114.867L63.9328 127.41L18.8138 114.884Z" fill="#27AB83"/>
<path d="M64.001 117.824L100.56 107.688L109.161 11.334H64.001V117.824Z" fill="#65D6AD"/>
<path d="M64.001 52.1903H82.303L83.567 38.0273H64.001V24.1963H98.683L98.351 27.9073L94.951 66.0213H64.001V52.1903Z" fill="#F0F4F8"/>
<path d="M64.083 88.1105L64.022 88.1285L48.619 83.9695L47.634 72.9385H33.752L35.689 94.6555L64.02 102.518L64.083 102.5V88.1105Z" fill="#EBEBEB"/>
<path d="M81.1272 65.4365L79.4612 83.9585L64.0352 88.1225V102.513L92.3892 94.6545L92.5972 92.3175L95.0032 65.4365H81.1272Z" fill="#F0F4F8"/>
<path d="M64.0479 24.1963V38.0273H30.6399L30.3629 34.9193L29.7329 27.9073L29.4019 24.1963H64.0479ZM64.0009 52.1923V66.0233H48.7919L48.5149 62.9153L47.8839 55.9033L47.5539 52.1923H64.0009Z" fill="#EBEBEB"/>
</svg>
