<svg width="100" height="100" viewBox="0 0 128 129" fill="none" xmlns="http://www.w3.org/2000/svg">
<path d="M124.737 59.14L69.6211 4.02601C66.4491 0.852008 61.3011 0.852008 58.1241 4.02601L46.6801 15.472L61.1981 29.99C64.5731 28.851 68.4411 29.615 71.1301 32.304C73.8331 35.01 74.5911 38.911 73.4241 42.297L87.4161 56.29C90.8011 55.123 94.7081 55.877 97.4101 58.585C101.19 62.362 101.19 68.485 97.4101 72.264C93.6301 76.044 87.5091 76.044 83.7271 72.264C80.8851 69.42 80.1821 65.245 81.6221 61.743L68.5741 48.695L68.5721 83.036C69.4941 83.491 70.3631 84.099 71.1311 84.864C74.9091 88.641 74.9091 94.762 71.1311 98.547C67.3521 102.324 61.2271 102.324 57.4521 98.547C53.6741 94.763 53.6741 88.642 57.4521 84.864C58.3861 83.931 59.4661 83.226 60.6191 82.754V48.095C59.4661 47.623 58.3881 46.923 57.4521 45.984C54.5901 43.124 53.9011 38.924 55.3691 35.408L41.0561 21.095L3.26406 58.885C0.0890625 62.062 0.0890625 67.21 3.26406 70.385L58.3811 125.499C61.5551 128.673 66.7011 128.673 69.8801 125.499L124.738 70.641C127.912 67.465 127.912 62.314 124.737 59.14Z" fill="#65D6AD"/>
</svg>
