<svg width="100" height="100" viewBox="0 0 128 129" fill="none" xmlns="http://www.w3.org/2000/svg">
<path d="M19.0372 114.638L9.03223 2.42285H118.968L108.952 114.621L63.9332 127.101L19.0372 114.638Z" fill="#27AB83"/>
<path d="M64 117.562L100.378 107.476L108.937 11.5977H64V117.562Z" fill="#65D6AD"/>
<path d="M63.9998 53.2164H45.7878L44.5298 39.1224H63.9998V25.3604H29.4888L29.8188 29.0524L33.2008 66.9794H63.9998V53.2164ZM63.9998 88.9594L63.9388 88.9763L48.6118 84.8363L47.6328 73.8614H33.8158L35.7438 95.4704L63.9368 103.296L63.9998 103.279V88.9594Z" fill="#EBEBEB"/>
<path d="M63.9521 53.2164V66.9794H80.8992L79.3022 84.8284L63.9521 88.9714V103.29L92.1671 95.4704L92.3741 93.1454L95.6082 56.9124L95.9431 53.2164H92.2351H63.9521ZM63.9521 25.3604V39.1224H97.1961L97.4721 36.0304L98.1001 29.0524L98.4291 25.3604H63.9521Z" fill="#F0F4F8"/>
</svg>
