<svg width="100" height="100" viewBox="0 0 128 129" fill="none" xmlns="http://www.w3.org/2000/svg">
<path d="M2 1.76172V126.762H127V1.76172H2ZM68.119 108.275C66.274 112.024 62.752 114.487 58.671 115.676C52.4 117.116 46.402 116.295 41.94 113.617C38.954 111.785 36.622 108.965 35.039 105.716L44.559 99.8857C44.642 99.9207 44.892 100.373 45.226 100.957C46.44 102.991 47.487 104.431 49.545 105.442C51.567 106.132 56.006 106.573 57.72 103.015C58.767 101.205 58.434 95.3867 58.434 88.9497C58.433 78.8347 58.48 68.7617 58.48 58.7617H70.189C70.189 69.7617 70.249 80.1797 70.189 90.9137C70.214 97.4937 70.785 103.36 68.119 108.275ZM116.693 104.967C112.623 118.889 89.931 119.341 80.863 110.143C78.947 107.978 77.746 106.847 76.603 104.348C81.422 101.576 81.422 101.576 86.111 98.8627C88.658 102.778 91.013 104.931 95.25 105.812C100.998 106.514 106.781 104.539 105.484 98.4337C104.151 93.4477 93.714 92.2347 86.611 86.9027C79.4 82.0597 77.71 70.2917 83.636 63.5677C85.611 61.0807 88.979 59.2247 92.513 58.3327L96.201 57.8557C103.282 57.7127 107.708 59.5827 110.957 63.2107C111.861 64.1267 112.599 65.1147 113.979 67.2557C110.207 69.6597 110.219 69.6367 104.816 73.1347C103.662 70.6487 101.747 69.0887 99.723 68.4107C96.581 67.4587 92.619 68.4937 91.797 71.8137C91.512 72.8367 91.571 73.7887 92.024 75.4787C93.297 78.3817 97.569 79.6437 101.401 81.4047C112.432 85.8787 116.157 90.6757 117.073 96.3857C117.955 101.302 116.86 104.491 116.693 104.967Z" fill="#65D6AD"/>
</svg>
