<svg id="Capa_1" data-name="Capa 1" xmlns="http://www.w3.org/2000/svg" viewBox="0 0 120 120"><defs><style>.cls-1{fill:#3ebd93}.cls-2{fill:#c6f7e2}.cls-3,.cls-6{fill:#199473}.cls-5{fill:#8eedc7}.cls-6{font-size:107.18px;font-family:BernardMT-Condensed,Bernard MT Condensed}</style></defs><path class="cls-1" d="M76.08 18.08l-16.4 10.83-16.34-11.08L59.68 6.69l16.4 11.39z"/><path class="cls-2" d="M48.14 36.81v72.64L31.68 95.88V48.27l16.46-11.46z"/><path class="cls-1" d="M76.08 71.56l-16.4 10.83-16.1-10.83 16.1-11.39 16.4 11.39z"/><path class="cls-3" d="M48.2 21.12v15.72L31.62 48.2l-.06-22.78 11.78-7.59 4.86 3.29z"/><path fill="#27ab83" d="M59.68 28.91L48.2 36.84V21.12l11.48 7.79z"/><path class="cls-3" d="M59.68 60.15l28.37-18.86-.12 22.29-11.85 7.96-16.4-11.39z"/><path class="cls-2" d="M59.68 60.15L48.2 68.28V52.36l11.48 7.79z"/><path class="cls-5" d="M48.2 52.36v15.92l-4.62 3.26-11.84-8.27v-15l3.67-2.6 1.43-1.01.02.01 11.34 7.69zM88.05 41.29l-5.04 3.37-23.45-15.69 16.52-10.89 11.97 7.72v15.49zM76.08 71.54l11.97 9.09-16.46 9.03-11.91-7.22 16.4-10.9z"/><path class="cls-3" d="M87.93 80.13l-16.71 10.4-11.59-8.19 16.42-10.9 11.88 8.69z"/><path class="cls-2" d="M87.93 80.13l-.12 29.79-16.46-13.56-.13-5.83 16.71-10.4z"/><text class="cls-6" transform="matrix(.69 0 0 1 0 95.82)">{</text><text class="cls-6" transform="matrix(-.69 0 0 1 120 95.82)">{</text></svg>