<svg width="100" height="100" viewBox="0 0 128 129" fill="none" xmlns="http://www.w3.org/2000/svg">
<path d="M116.948 98.5688C110.085 98.3818 104.844 99.0208 100.363 100.91C99.0899 101.447 97.0579 101.462 96.8499 103.057C97.5499 103.79 97.6589 104.886 98.2149 105.788C99.2849 107.518 101.091 109.84 102.703 111.056C104.465 112.386 106.28 113.807 108.168 114.958C111.526 117.005 115.275 118.175 118.508 120.226C120.414 121.436 122.307 122.959 124.166 124.323C125.086 124.998 125.703 126.047 126.898 126.47V126.276C126.27 125.476 126.108 124.378 125.532 123.543L122.995 121.006C120.515 117.714 117.366 114.822 114.019 112.421C111.35 110.505 105.377 107.917 104.264 104.812L104.069 104.617C105.961 104.403 108.176 103.719 109.923 103.25C112.857 102.464 115.479 102.667 118.508 101.885L122.605 100.714V99.9338C121.074 98.3628 119.982 96.2828 118.313 94.8608C113.943 91.1408 109.175 87.4238 104.265 84.3238C101.541 82.6058 98.1759 81.4888 95.2889 80.0318C94.3179 79.5408 92.6119 79.2858 91.9709 78.4698C90.4539 76.5378 89.6289 74.0878 88.4599 71.8368C86.0109 67.1198 83.6059 61.9688 81.4359 57.0058C79.9559 53.6218 78.9889 50.2858 77.1429 47.2498C68.2829 32.6828 58.7469 23.8918 43.9739 15.2498C40.8299 13.4118 37.0449 12.6868 33.0449 11.7368C30.8999 11.6078 28.7529 11.4768 26.6069 11.3458C25.2959 10.7998 23.9339 9.19681 22.7049 8.41881C17.8109 5.32681 5.25687 -1.39819 1.63287 7.44381C-0.656129 13.0248 5.05387 18.4688 7.09487 21.2978C8.52887 23.2798 10.3639 25.5048 11.3879 27.7358C12.0619 29.2028 12.1779 30.6738 12.7549 32.2248C14.1719 36.0468 15.4069 40.2048 17.2419 43.7358C18.1689 45.5238 19.1909 47.4058 20.3639 49.0038C21.0819 49.9848 22.3149 50.4168 22.5089 51.9308C21.3049 53.6168 21.2359 56.2348 20.5589 58.3708C17.5089 67.9858 18.6599 79.9378 23.0959 87.0538C24.4559 89.2398 27.6629 93.9248 32.0709 92.1268C35.9269 90.5568 35.0659 85.6888 36.1689 81.3948C36.4179 80.4218 36.2649 79.7058 36.7539 79.0538V79.2488L40.2669 86.2728C42.8669 90.4598 47.4789 94.8348 51.3889 97.7868C53.4159 99.3178 55.0119 101.964 57.6329 102.86V102.664H57.4379C56.9299 101.873 56.1349 101.545 55.4869 100.909C53.9599 99.4118 52.2619 97.5508 50.9999 95.8358C47.4439 91.0088 44.3019 85.7258 41.4389 80.2268C40.0709 77.5998 38.8819 74.7038 37.7299 72.0308C37.2859 71.0008 37.2919 69.4418 36.3659 68.9088C35.1029 70.8668 33.2439 72.4508 32.2679 74.7628C30.7069 78.4588 30.5059 82.9668 29.9269 87.6408C29.5849 87.7628 29.7369 87.6788 29.5359 87.8348C26.8179 87.1798 25.8639 84.3828 24.8529 81.9818C22.2989 75.9118 21.8239 66.1398 24.0719 59.1528C24.6539 57.3438 27.2819 51.6518 26.2179 49.9808C25.7099 48.3148 24.0339 47.3508 23.0969 46.0778C21.9359 44.5038 20.7779 42.4318 19.9729 40.6138C17.8829 35.8828 16.9069 30.5698 14.7059 25.7858C13.6529 23.4988 11.8739 21.1838 10.4129 19.1518C8.79587 16.8988 6.98387 15.2398 5.72987 12.5168C5.28387 11.5488 4.67887 9.99881 5.33887 9.00381C5.54887 8.33281 5.84687 8.05281 6.50987 7.83381C7.64187 6.96081 10.7939 8.12381 11.9719 8.61281C15.1009 9.91281 17.7129 11.1508 20.3639 12.9068C21.6349 13.7508 22.9229 15.3818 24.4609 15.8338H26.2169C28.9639 16.4648 32.0409 16.0288 34.6079 16.8088C39.1439 18.1868 43.2089 20.3318 46.8999 22.6628C58.1459 29.7648 67.3419 39.8728 73.6319 51.9318C74.6439 53.8738 75.0819 55.7258 75.9729 57.7858C77.7709 61.9388 80.0359 66.2118 81.8249 70.2738C83.6109 74.3258 85.3509 78.4148 87.8749 81.7868C89.2019 83.5588 94.3259 84.5098 96.6559 85.4948C98.2879 86.1838 100.963 86.9038 102.51 87.8348C105.463 89.6168 108.325 91.7378 111.096 93.6898C112.479 94.6648 116.736 96.8058 116.948 98.5688ZM29.7289 24.2278C28.2979 24.2008 27.2859 24.3838 26.2159 24.6168V24.8118H26.4109C27.0939 26.2138 28.2989 27.1178 29.1419 28.3248C29.7919 29.6918 30.4429 31.0568 31.0939 32.4218L31.2879 32.2288C32.4969 31.3758 33.0499 30.0148 33.0429 27.9348C32.5589 27.4258 32.4879 26.7878 32.0679 26.1798C31.5119 25.3688 30.4329 24.9078 29.7289 24.2278Z" fill="#65D6AD"/>
</svg>
