<svg width="100" height="100" viewBox="0 0 128 129" fill="none" xmlns="http://www.w3.org/2000/svg">
<path d="M112.771 31.0957L68.674 5.49073C65.893 3.90673 62.272 3.90673 59.469 5.49073L14.901 31.0957C12.031 32.7467 10 35.8497 10 39.1687V90.3107C10 93.6297 12.084 96.7337 14.954 98.3937L26.729 105.082C32.357 107.854 34.346 107.854 36.907 107.854C45.24 107.854 50 102.815 50 94.0257V43.5357C50 42.8227 49.629 41.7617 48.929 41.7617H43.306C42.594 41.7617 41 42.8227 41 43.5347V94.0247C41 97.9207 37.476 101.798 30.89 98.5047L18.723 91.4917C18.299 91.2617 18 90.7987 18 90.3107V39.1687C18 38.6867 18.555 38.2027 18.982 37.9557L63.406 12.3947C63.821 12.1597 64.431 12.1597 64.845 12.3947L108.727 37.9497C109.147 38.2027 108.999 38.6717 108.999 39.1687V90.3107C108.999 90.7987 109.182 91.2737 108.767 91.5087L64.681 117.085C64.303 117.312 63.834 117.312 63.42 117.085L52.113 110.336C51.772 110.138 51.367 110.067 51.04 110.25C47.894 112.033 47.314 112.27 44.363 113.293C43.637 113.546 42.566 113.985 44.773 115.222L59.571 123.976C60.988 124.796 62.598 125.222 64.218 125.222C65.86 125.222 67.468 124.796 68.885 123.976L112.77 98.3937C115.64 96.7217 117 93.6297 117 90.3107V39.1687C117 35.8497 115.64 32.7547 112.771 31.0957ZM77.91 82.2067C66.184 82.2067 63.601 78.9717 62.74 73.1407C62.64 72.5127 62.107 71.7617 61.468 71.7617H55.737C55.028 71.7617 54.458 72.6217 54.458 73.3277C54.458 80.7937 58.517 89.8397 77.911 89.8397C91.95 89.8397 99.999 84.3847 99.999 74.7307C99.999 65.1587 93.532 62.6467 79.917 60.8447C66.155 59.0257 64.757 58.1067 64.757 54.8827C64.757 52.2247 65.941 48.6797 76.131 48.6797C85.236 48.6797 88.592 50.6337 89.973 56.7707C90.091 57.3477 90.618 57.7617 91.213 57.7617H96.967C97.321 57.7617 97.659 57.6187 97.907 57.3657C98.147 57.0937 98.274 56.7527 98.242 56.3867C97.351 45.8187 90.33 40.8937 76.13 40.8937C63.499 40.8937 55.964 46.2277 55.964 55.1687C55.964 64.8667 63.461 67.5467 75.586 68.7457C90.091 70.1677 91.219 72.2877 91.219 75.1407C91.219 80.0957 87.241 82.2067 77.91 82.2067Z" fill="#65D6AD"/>
</svg>
