<svg width="100" height="100" viewBox="0 0 128 129" fill="none" xmlns="http://www.w3.org/2000/svg">
<path fill-rule="evenodd" clip-rule="evenodd" d="M1.21924 56.9177C1.21924 57.6207 1.42624 58.0847 1.54224 58.5357C2.29824 61.4687 3.92324 63.9857 5.85124 66.2817C8.59724 69.5537 11.9602 72.1877 15.4052 74.6647C18.3932 76.8127 21.4422 78.9127 24.4422 81.0447C24.9572 81.4107 25.4442 81.8317 26.0032 82.2807C25.5222 82.5407 25.1222 82.7697 24.7062 82.9807C20.7472 84.9887 16.9382 87.2397 13.4272 89.9667C11.3112 91.6107 9.26524 93.3577 7.82024 95.6407C5.49524 99.3127 4.67224 103.225 6.40524 107.402C6.91124 108.622 7.68324 109.676 8.77224 110.455C9.12524 110.707 9.52124 110.957 9.93424 111.055C10.9922 111.304 12.0702 111.467 13.1412 111.664L16.1742 111.662C19.5282 111.363 22.5812 110.214 25.3402 108.31C29.6522 105.334 32.5572 101.344 33.8062 96.2227C34.7142 92.5007 34.7512 88.7747 33.6812 85.0697C33.5822 84.7257 33.4572 84.3887 33.3272 84.0557C33.1972 83.7227 33.0442 83.3987 32.8642 82.9837L39.7402 79.0297L39.8432 79.1177C39.7182 79.5267 39.5852 79.9347 39.4722 80.3477C38.6552 83.3317 38.1122 86.3677 38.3072 89.4647C38.5152 92.7647 39.4362 95.8537 41.3682 98.6107C42.9302 100.841 46.6522 100.924 48.3122 98.6857C48.9012 97.8907 49.4722 97.0597 49.9012 96.1727C51.0222 93.8577 52.0602 91.5017 53.1312 89.1617L53.3182 88.7337C53.2412 89.8417 53.1512 90.8147 53.1102 91.7887C53.0462 93.3097 53.1352 94.8217 53.6552 96.2687C54.1002 97.5067 54.8572 98.4317 56.2752 98.5947C57.2452 98.7057 58.0182 98.2617 58.7312 97.6987C59.8452 96.8197 60.7502 95.7337 61.4222 94.4997C63.3232 91.0087 65.2752 87.5387 66.9982 83.9597C68.8622 80.0887 70.4922 76.1047 72.2232 72.1677L72.5092 71.4697C72.9182 73.0767 73.2032 74.6507 73.7282 76.1407C74.3382 77.8697 75.0932 79.5577 75.9152 81.1987C76.3042 81.9737 76.2592 82.4767 75.7202 83.1267C73.4642 85.8467 71.2472 88.5997 69.0282 91.3497C68.5372 91.9567 68.0482 92.5747 67.6392 93.2377C67.3922 93.6407 67.2282 94.1317 67.1592 94.6017C67.0262 95.4997 67.5812 96.3657 68.5422 96.5727C69.4202 96.7617 70.3552 96.8317 71.2502 96.7657C74.3472 96.5377 77.1592 95.4507 79.6452 93.6087C82.8662 91.2227 83.9002 87.9667 83.1202 84.1077C82.9092 83.0607 82.5362 82.0427 82.1732 81.0337C82.0102 80.5787 81.9992 80.2597 82.2962 79.8357C84.8712 76.1587 87.0712 72.2577 89.1172 68.2667C89.1982 68.1097 89.2812 67.9527 89.4232 67.7847C90.0862 71.2347 91.0842 74.5597 92.8722 77.5767C91.9602 78.4557 91.0572 79.2527 90.2402 80.1307C88.4412 82.0647 86.8812 84.1647 86.0672 86.7257C85.7172 87.8297 85.4482 88.9517 85.6042 90.1307C85.8462 91.9617 87.3462 93.1517 89.1472 92.7347C93.0012 91.8427 96.3282 90.0267 98.7592 86.8097C100.395 84.6437 100.544 82.2277 99.8592 79.6967C99.6712 79.0087 99.4482 78.3317 99.2082 77.5427C100.159 77.2477 101.086 76.8937 102.045 76.6747C107.024 75.5387 111.949 75.7367 116.747 77.5347C119.548 78.5847 121.811 80.3417 123.153 83.1057C124.792 86.4847 123.886 89.6907 120.701 91.8267C120.404 92.0257 120.064 92.1827 119.818 92.4317C119.667 92.5847 119.576 92.8907 119.613 93.1017C119.634 93.2247 119.959 93.3787 120.146 93.3767C121.193 93.3687 122.042 92.8197 122.857 92.2557C124.899 90.8427 126.389 88.9417 126.71 86.4387L126.773 86.2507L126.696 84.6207C126.665 84.5267 126.719 84.4337 126.712 84.3627C126.278 80.7177 124.331 77.8907 121.499 75.6747C118.219 73.1097 114.346 72.0537 110.25 71.8867C106.912 71.7507 103.631 72.2467 100.485 73.3897C99.5882 73.7147 98.6992 74.0997 97.7972 74.4627C97.6762 74.2437 97.5462 74.0337 97.4392 73.8167C96.5132 71.9207 95.3912 70.1087 95.1432 67.9347C94.9672 66.3907 94.7512 64.8487 95.1182 63.3217C95.4712 61.8527 95.9312 60.4087 96.3642 58.9597C96.5872 58.2137 96.4302 57.7957 95.7182 57.4597C95.4702 57.3427 95.2002 57.2407 94.9322 57.2017C93.1822 56.9477 91.4562 57.0927 89.7612 57.5857C89.1612 57.7607 88.7252 58.0967 88.5922 58.7607C88.5162 59.1417 88.3612 59.5067 88.2532 59.8827C87.8102 61.4457 87.4962 63.0387 86.7802 64.5277C84.9862 68.2627 82.9382 71.8567 80.8422 75.4247C80.6152 75.8097 80.3762 76.1877 80.0902 76.6547C79.3542 75.1147 78.5692 73.7327 78.3312 72.1127C78.0622 70.2807 77.8502 68.4517 78.3062 66.6337C78.6452 65.2777 79.0882 63.9467 79.4962 62.6087C79.6892 61.9727 79.6002 61.6387 79.0242 61.3037C78.7332 61.1347 78.4042 60.9847 78.0762 60.9357C76.2612 60.6667 74.4732 60.8077 72.7222 61.3737C72.1792 61.5497 71.8942 61.9007 71.7282 62.4607C71.2402 64.1127 70.8242 65.8047 70.1392 67.3757C67.3652 73.7357 64.5112 80.0627 61.6602 86.3887C61.0652 87.7097 60.3682 88.9847 59.6972 90.2707C59.5272 90.5967 59.2792 90.8837 59.0672 91.1897C58.8972 90.9887 58.8312 90.8507 58.8322 90.7127C58.8372 89.8997 58.7402 89.0627 58.8952 88.2767C59.3642 85.8987 59.9042 83.5337 60.4732 81.1777C60.9432 79.2317 61.4902 77.3037 62.0112 75.3707C62.1862 74.7237 62.1892 74.1187 61.7242 73.5747C60.9432 72.6637 59.3112 72.4637 58.3432 73.1657L57.9152 73.4077L57.9982 72.7177C58.2022 71.2387 58.2432 69.7647 57.8372 68.3077C57.3312 66.4917 56.0352 65.4467 54.1512 65.5047C53.2732 65.5317 52.3512 65.6817 51.5382 66.0017C48.1192 67.3417 45.4902 69.7147 43.2522 72.5697C43.0492 72.8287 42.7812 73.0647 42.4952 73.2237C39.6022 74.8277 36.7002 76.4117 33.7992 78.0017L30.5702 79.7707C29.7042 78.9447 28.9172 78.0877 28.0242 77.3607C25.2972 75.1367 22.5262 72.9677 19.7802 70.7687C17.3462 68.8197 14.9882 66.7897 13.1842 64.2087C11.8422 62.2887 10.9772 60.1877 10.8942 57.8137C10.7892 54.7887 11.6472 52.0247 13.1872 49.4517C15.1572 46.1597 17.8442 43.5177 20.7982 41.1247C23.9232 38.5947 27.3032 36.4467 30.8062 34.4857C35.7072 31.7427 40.7482 29.3147 46.1532 27.7117C51.6952 26.0677 57.3182 25.1267 63.1182 25.7827C65.3982 26.0407 67.6122 26.5627 69.6452 27.6777C71.2022 28.5307 72.4792 29.6477 73.0732 31.3937C73.6592 33.1117 73.6412 34.8527 73.2352 36.5977C72.4102 40.1317 70.4752 43.0447 68.0402 45.6477C64.0462 49.9147 59.1742 52.8197 53.6892 54.7387C50.5242 55.8457 47.2682 56.5407 43.9242 56.8217C41.1952 57.0507 38.5232 56.8087 35.9392 55.8597C34.2282 55.2307 32.7382 54.2687 31.5402 52.8727C31.3262 52.6227 31.0522 52.3517 30.6532 52.5857C30.2622 52.8157 30.1932 53.1877 30.3242 53.5647C30.5432 54.1907 30.7452 54.8427 31.0862 55.4027C31.9432 56.8077 33.1932 57.8267 34.5692 58.7007C37.2122 60.3817 40.1662 60.9467 43.2292 61.0777C47.8772 61.2787 52.4122 60.5847 56.8832 59.3377C63.2662 57.5577 68.8162 54.4137 73.2672 49.4537C76.9732 45.3237 79.6202 40.6627 80.1872 35.0347C80.4642 32.2877 80.1692 29.5967 78.8832 27.0907C77.4882 24.3757 75.2702 22.3567 72.6182 20.9657C68.7562 18.9407 64.5882 17.7617 60.2862 17.7617H55.9762C50.7662 17.7617 45.7292 19.2547 40.8332 21.0357C37.1272 22.3847 33.4932 23.9767 29.9652 25.7387C22.2822 29.5777 15.1272 34.2067 9.25024 40.5717C6.32224 43.7427 3.84324 47.2417 2.41724 51.3617C2.00024 52.5677 1.60424 53.8607 1.30624 55.1077L1.21924 56.9177ZM29.1452 91.1207C28.8122 95.5797 26.7912 99.1947 23.4882 102.123C21.6302 103.769 19.4992 104.941 17.0172 105.353C16.1172 105.502 15.1962 105.538 14.3232 105.165C13.0782 104.633 12.7992 103.528 12.7752 102.351C12.7382 100.475 13.3952 98.7787 14.2962 97.1647C15.4722 95.0607 17.1962 93.4567 19.0372 91.9587C21.9372 89.5977 25.0832 87.5997 28.3052 85.7137L28.5482 85.6137C29.0462 87.4537 29.2832 89.2707 29.1452 91.1207ZM54.3032 71.7417C54.0682 73.1657 53.7742 74.5907 53.3582 75.9707C51.9202 80.7477 50.0732 85.3767 48.0762 89.9437C47.7072 90.7887 47.1702 91.5597 46.7032 92.3607C46.6312 92.4847 46.5242 92.5917 46.4202 92.6947C45.8422 93.2657 45.2942 93.2357 45.0022 92.4887C44.6622 91.6207 44.4532 90.6917 44.2732 89.7727C44.1522 89.1557 44.1812 88.5077 44.1432 87.8757C44.1822 83.3817 45.5532 79.2977 47.8792 75.4957C48.8382 73.9277 49.8822 72.4337 51.4772 71.4417C51.9672 71.1367 52.5172 70.8917 53.0722 70.7357C53.9222 70.4967 54.4442 70.8897 54.3032 71.7417ZM71.4672 93.6097L77.6362 86.4067C77.8932 89.0817 73.3462 94.4217 71.4672 93.6097ZM91.1702 88.7627C90.7342 89.0127 90.2592 89.1927 89.8122 89.4237C89.4032 89.6357 89.2682 89.4217 89.2562 89.0697C89.2482 88.8307 89.2832 88.5807 89.3492 88.3487C90.1822 85.4107 91.7152 82.9027 93.9962 80.8627L94.1562 80.7807C95.2412 83.8157 93.9872 87.1487 91.1702 88.7627Z" fill="#65D6AD"/>
</svg>
