<svg width="100" height="100" viewBox="0 0 128 129" fill="none" xmlns="http://www.w3.org/2000/svg">
<path d="M122.34 47.7617H22.6699V121.432H122.34V47.7617Z" fill="#F0F4F8"/>
<path d="M1.5 64.6719V127.172H126.5V2.17188H1.5V64.6719ZM102.23 59.6719C105.224 60.3666 107.945 61.9325 110.05 64.1719C111.209 65.3783 112.216 66.7216 113.05 68.1719C113.05 68.3319 107.65 71.9819 104.36 74.0219C104.24 74.1019 103.76 73.5819 103.23 72.7919C102.629 71.7555 101.776 70.8883 100.75 70.271C99.7231 69.6537 98.557 69.3065 97.36 69.2619C93.57 69.0019 91.13 70.9919 91.15 74.2619C91.1187 75.076 91.3051 75.8838 91.69 76.6019C92.52 78.3319 94.07 79.3619 98.93 81.4619C107.88 85.3119 111.71 87.8519 114.09 91.4619C116.75 95.4619 117.34 101.922 115.54 106.702C113.54 111.902 108.64 115.432 101.71 116.602C98.5448 116.964 95.3468 116.931 92.19 116.502C87.3516 115.704 82.8948 113.381 79.47 109.872C78.32 108.602 76.08 105.292 76.22 105.052C76.5851 104.781 76.9694 104.537 77.37 104.322L82 101.762L85.59 99.6819L86.34 100.792C87.6057 102.602 89.2166 104.145 91.08 105.332C95.08 107.432 100.54 107.142 103.24 104.712C104.147 103.821 104.712 102.641 104.838 101.377C104.964 100.112 104.643 98.8438 103.93 97.7919C102.93 96.4019 100.93 95.2319 95.34 92.7919C88.89 90.0119 86.11 88.2919 83.57 85.5519C81.9843 83.7438 80.8136 81.6105 80.14 79.3019C79.6375 76.6643 79.5633 73.9631 79.92 71.3019C81.25 65.0719 85.92 60.7219 92.74 59.4319C95.8984 59.0411 99.0977 59.1287 102.23 59.6919V59.6719ZM72.89 64.9119V70.0319H56.66V116.262H45.15V70.0219H28.88V65.0219C28.8293 63.2976 28.8694 61.5719 29 59.8519C29.08 59.7619 39 59.7619 51 59.7619H72.83L72.89 64.9119Z" fill="#65D6AD"/>
</svg>
