<svg width="100" height="100" viewBox="0 0 128 129" fill="none" xmlns="http://www.w3.org/2000/svg">
<g clip-path="url(#clip0)">
<mask id="path-1-inside-1" fill="white">
<path d="M0 9.69531L49.854 9.85391L64.021 34.3239L78.453 9.85391L128 9.69621L64.166 119.836L0 9.69531ZM126.98 10.3327L102.62 10.3534L64.144 76.4054L25.691 10.3534L0.942 10.334L64.153 118.224L126.98 10.3327ZM101.831 10.3247L79.086 10.4923L64.033 35.1393L49.216 10.4923L26.422 10.3244L64.153 74.8004L101.831 10.3247ZM25.997 10.1545L48.999 10.1632L25.997 10.1545ZM25.997 10.1545L48.999 10.1632L25.997 10.1545Z"/>
</mask>
<path d="M0 9.69531L49.854 9.85391L64.021 34.3239L78.453 9.85391L128 9.69621L64.166 119.836L0 9.69531ZM126.98 10.3327L102.62 10.3534L64.144 76.4054L25.691 10.3534L0.942 10.334L64.153 118.224L126.98 10.3327ZM101.831 10.3247L79.086 10.4923L64.033 35.1393L49.216 10.4923L26.422 10.3244L64.153 74.8004L101.831 10.3247ZM25.997 10.1545L48.999 10.1632L25.997 10.1545ZM25.997 10.1545L48.999 10.1632L25.997 10.1545Z" fill="#C4C4C4"/>
<path d="M0 9.69531L0.00318129 8.69532L-1.74314 8.68976L-0.864062 10.1987L0 9.69531ZM49.854 9.85391L50.7194 9.35287L50.4316 8.85575L49.8572 8.85392L49.854 9.85391ZM64.021 34.3239L63.1556 34.825L64.013 36.3059L64.8824 34.8319L64.021 34.3239ZM78.453 9.85391L78.4498 8.85392L77.8807 8.85573L77.5917 9.3459L78.453 9.85391ZM128 9.69621L128.865 10.1977L129.739 8.69067L127.997 8.69622L128 9.69621ZM64.166 119.836L63.3019 120.34L64.1682 121.827L65.0312 120.338L64.166 119.836ZM126.98 10.3327L127.844 10.8359L128.72 9.33123L126.979 9.33271L126.98 10.3327ZM102.62 10.3534L102.619 9.35341L102.045 9.3539L101.756 9.85007L102.62 10.3534ZM64.144 76.4054L63.2798 76.9085L64.1437 78.3926L65.0081 76.9088L64.144 76.4054ZM25.691 10.3534L26.5552 9.8503L26.2662 9.35386L25.6918 9.35341L25.691 10.3534ZM0.942 10.334L0.942784 9.33401L-0.803677 9.33264L0.0791804 10.8395L0.942 10.334ZM64.153 118.224L63.2902 118.73L64.1556 120.207L65.0172 118.727L64.153 118.224ZM101.831 10.3247L102.694 10.8293L103.581 9.31179L101.824 9.32474L101.831 10.3247ZM79.086 10.4923L79.0786 9.49232L78.5225 9.49642L78.2326 9.97107L79.086 10.4923ZM64.033 35.1393L63.1759 35.6545L64.0262 37.0689L64.8864 35.6605L64.033 35.1393ZM49.216 10.4923L50.0731 9.97706L49.7841 9.49645L49.2234 9.49232L49.216 10.4923ZM26.422 10.3244L26.4294 9.32442L24.6706 9.31147L25.5589 10.8295L26.422 10.3244ZM64.153 74.8004L63.2899 75.3055L64.1536 76.7813L65.0164 75.3049L64.153 74.8004ZM-0.00318129 10.6953L49.8508 10.8539L49.8572 8.85392L0.00318129 8.69532L-0.00318129 10.6953ZM48.9886 10.355L63.1556 34.825L64.8864 33.8229L50.7194 9.35287L48.9886 10.355ZM64.8824 34.8319L79.3144 10.3619L77.5917 9.3459L63.1597 33.8159L64.8824 34.8319ZM78.4562 10.8539L128.003 10.6962L127.997 8.69622L78.4498 8.85392L78.4562 10.8539ZM127.135 9.19477L63.3008 119.335L65.0312 120.338L128.865 10.1977L127.135 9.19477ZM65.0301 119.333L0.864062 9.19193L-0.864062 10.1987L63.3019 120.34L65.0301 119.333ZM126.979 9.33271L102.619 9.35341L102.621 11.3534L126.981 11.3327L126.979 9.33271ZM101.756 9.85007L63.2799 75.9021L65.0081 76.9088L103.484 10.8568L101.756 9.85007ZM65.0082 75.9023L26.5552 9.8503L24.8268 10.8565L63.2798 76.9085L65.0082 75.9023ZM25.6918 9.35341L0.942784 9.33401L0.941216 11.334L25.6902 11.3534L25.6918 9.35341ZM0.0791804 10.8395L63.2902 118.73L65.0158 117.719L1.80482 9.8285L0.0791804 10.8395ZM65.0172 118.727L127.844 10.8359L126.116 9.8295L63.2888 117.721L65.0172 118.727ZM101.824 9.32474L79.0786 9.49232L79.0934 11.4923L101.838 11.3247L101.824 9.32474ZM78.2326 9.97107L63.1796 34.6181L64.8864 35.6605L79.9394 11.0135L78.2326 9.97107ZM64.89 34.6241L50.0731 9.97706L48.3589 11.0075L63.1759 35.6545L64.89 34.6241ZM49.2234 9.49232L26.4294 9.32442L26.4146 11.3244L49.2086 11.4923L49.2234 9.49232ZM25.5589 10.8295L63.2899 75.3055L65.0161 74.2953L27.2851 9.81932L25.5589 10.8295ZM65.0164 75.3049L102.694 10.8293L100.968 9.82017L63.2896 74.2959L65.0164 75.3049ZM25.9966 11.1545L48.9986 11.1632L48.9994 9.16321L25.9974 9.15451L25.9966 11.1545ZM48.9994 9.16321L25.9974 9.15451L25.9966 11.1545L48.9986 11.1632L48.9994 9.16321ZM25.9966 11.1545L48.9986 11.1632L48.9994 9.16321L25.9974 9.15451L25.9966 11.1545Z" fill="#2CB1BC" mask="url(#path-1-inside-1)"/>
<path d="M25.9971 10.1543L48.9991 10.163L64.0351 35.121L79.0181 10.165L102 10.1593L64.1501 75.8143L25.9971 10.1543Z" fill="#65D6AD"/>
<path d="M0.910645 10.3303L25.9766 10.1592L64.1276 75.8172L101.98 10.1632L127.09 10.1895L64.1236 118.249L0.910645 10.3303Z" fill="#F0F4F8"/>
</g>
<defs>
<clipPath id="clip0">
<rect width="128" height="128" fill="white" transform="translate(0 0.761719)"/>
</clipPath>
</defs>
</svg>
