<svg width="100" height="100" viewBox="0 0 128 129" fill="none" xmlns="http://www.w3.org/2000/svg">
<path d="M117.29 98.8617L66.24 127.762V105.252L98 87.7617L117.29 98.8617ZM120.79 95.7017V35.3117L102.11 46.1117V84.9217L120.78 95.6917L120.79 95.7017ZM10.71 98.8617L61.71 127.742V105.252L29.94 87.7617L10.71 98.8617ZM7.20996 95.7017V35.3117L25.89 46.1117V84.9217L7.20996 95.7017ZM9.39996 31.4017L61.76 1.76172V23.5217L28.21 41.9717L27.94 42.1217L9.39996 31.4017ZM118.58 31.4017L66.24 1.76172V23.5217L99.79 41.9617L100.06 42.1117L118.6 31.4017H118.58Z" fill="#65D6AD"/>
<path d="M61.7601 100.132L30.3701 82.8619V48.6819L61.7601 66.7619V100.132ZM66.2401 100.132L97.6301 82.8819V48.6819L66.2401 66.7619V100.132ZM32.5001 44.7619L64.0001 27.4219L95.5001 44.7619L64.0001 62.9219L32.5001 44.7619Z" fill="#65D6AD"/>
</svg>
